<?xml version="1.0" encoding="UTF-8" standalone="no"?>
<!DOCTYPE svg PUBLIC "-//W3C//DTD SVG 1.1//EN"
 "http://www.w3.org/Graphics/SVG/1.1/DTD/svg11.dtd">
<!-- Generated by graphviz version 12.2.1 (20241206.2353)
 -->
<!-- Title: OekonomischeAllokation Pages: 1 -->
<svg width="864pt" height="482pt"
 viewBox="0.00 0.00 864.00 481.52" xmlns="http://www.w3.org/2000/svg" xmlns:xlink="http://www.w3.org/1999/xlink">
<g id="graph0" class="graph" transform="scale(0.916054 0.916054) rotate(0) translate(4 521.65)">
<title>OekonomischeAllokation</title>
<polygon fill="white" stroke="none" points="-4,4 -4,-521.65 939.18,-521.65 939.18,4 -4,4"/>
<g id="clust1" class="cluster">
<title>cluster_cons</title>
<polygon fill="none" stroke="#1e88e5" stroke-dasharray="5,2" points="416.18,-286.15 416.18,-375.15 556.18,-375.15 556.18,-286.15 416.18,-286.15"/>
<text text-anchor="middle" x="486.18" y="-357.85" font-family="Times New Roman,serif" font-size="14.00">Konsumenten</text>
</g>
<g id="clust2" class="cluster">
<title>cluster_firms</title>
<polygon fill="none" stroke="#388e3c" stroke-dasharray="5,2" points="583.18,-286.15 583.18,-375.15 743.18,-375.15 743.18,-286.15 583.18,-286.15"/>
<text text-anchor="middle" x="663.18" y="-357.85" font-family="Times New Roman,serif" font-size="14.00">Unternehmen</text>
</g>
<g id="clust3" class="cluster">
<title>cluster_state</title>
<polygon fill="none" stroke="#f4511e" stroke-dasharray="5,2" points="769.18,-286.15 769.18,-375.15 927.18,-375.15 927.18,-286.15 769.18,-286.15"/>
<text text-anchor="middle" x="848.18" y="-357.85" font-family="Times New Roman,serif" font-size="14.00">Staat</text>
</g>
<g id="clust4" class="cluster">
<title>cluster_ngo</title>
<polygon fill="none" stroke="#8e24aa" stroke-dasharray="5,2" points="587.18,-420.65 587.18,-509.65 740.18,-509.65 740.18,-420.65 587.18,-420.65"/>
<text text-anchor="middle" x="663.68" y="-492.35" font-family="Times New Roman,serif" font-size="14.00">Zivilgesellschaft (NGOs)</text>
</g>
<!-- Scarcity -->
<g id="node1" class="node">
<title>Scarcity</title>
<polygon fill="#eceff1" stroke="black" stroke-width="2" points="376.35,-307.3 376.35,-329.5 267.29,-345.19 113.06,-345.19 4,-329.5 4,-307.3 113.06,-291.61 267.29,-291.61 376.35,-307.3"/>
<polygon fill="none" stroke="black" stroke-width="2" points="380.35,-303.84 380.35,-332.96 267.58,-349.19 112.77,-349.19 0,-332.96 0,-303.84 112.77,-287.61 267.58,-287.61 380.35,-303.84"/>
<text text-anchor="middle" x="190.18" y="-321.45" font-family="Arial" font-size="11.00">DAS KNAPPHEITSPROBLEM</text>
<text text-anchor="middle" x="190.18" y="-307.95" font-family="Arial" font-size="11.00">(Unbegrenzte Bedürfnisse vs. begrenzte Güter)</text>
</g>
<!-- Market -->
<g id="node2" class="node">
<title>Market</title>
<polygon fill="#fff9c4" stroke="black" stroke-width="2" points="595.18,-213.11 433.68,-178.11 595.18,-143.11 756.68,-178.11 595.18,-213.11"/>
<text text-anchor="middle" x="595.18" y="-181.16" font-family="Arial" font-size="11.00">MARKTMECHANISMUS</text>
<text text-anchor="middle" x="595.18" y="-167.66" font-family="Arial" font-size="11.00">(Preise als Knappheitssignale)</text>
</g>
<!-- Scarcity&#45;&gt;Market -->
<g id="edge1" class="edge">
<title>Scarcity&#45;&gt;Market</title>
<path fill="none" stroke="black" d="M261.46,-286.72C296.08,-272.33 338.46,-255.46 377.18,-242.11 421.01,-227 470.63,-212.46 511.44,-201.17"/>
<polygon fill="black" stroke="black" points="512.25,-204.58 520.97,-198.55 510.4,-197.83 512.25,-204.58"/>
<text text-anchor="middle" x="438.68" y="-245.31" font-family="Times New Roman,serif" font-size="14.00">erfordert Koordination</text>
</g>
<!-- Efficiency -->
<g id="node7" class="node">
<title>Efficiency</title>
<polygon fill="#d1c4e9" stroke="black" stroke-width="2" points="605.12,-0.09 611.71,-0.28 618.23,-0.56 624.65,-0.94 630.95,-1.4 637.11,-1.96 643.09,-2.6 648.89,-3.33 654.46,-4.15 659.8,-5.05 664.89,-6.02 669.7,-7.08 674.22,-8.21 678.44,-9.41 682.34,-10.68 685.92,-12.02 689.16,-13.41 692.06,-14.87 694.61,-16.38 696.81,-17.93 698.65,-19.53 700.15,-21.17 701.29,-22.85 702.09,-24.56 702.55,-26.3 702.67,-28.05 702.47,-29.83 701.95,-31.61 701.12,-33.41 700,-35.2 698.59,-37 696.92,-38.79 694.99,-40.56 692.82,-42.32 690.42,-44.05 687.81,-45.76 685,-47.44 682,-49.08 678.84,-50.68 675.51,-52.24 672.05,-53.74 668.46,-55.2 664.76,-56.59 660.95,-57.93 657.04,-59.2 653.06,-60.4 649,-61.53 644.88,-62.59 640.71,-63.57 636.49,-64.47 632.23,-65.28 627.94,-66.01 623.62,-66.66 619.28,-67.21 614.92,-67.68 610.55,-68.05 606.16,-68.33 601.77,-68.52 597.37,-68.61 592.98,-68.61 588.58,-68.52 584.19,-68.33 579.8,-68.05 575.43,-67.68 571.07,-67.21 566.73,-66.66 562.41,-66.01 558.12,-65.28 553.86,-64.47 549.64,-63.57 545.47,-62.59 541.35,-61.53 537.29,-60.4 533.31,-59.2 529.41,-57.93 525.6,-56.59 521.89,-55.2 518.3,-53.74 514.84,-52.24 511.52,-50.68 508.35,-49.08 505.36,-47.44 502.54,-45.76 499.93,-44.05 497.53,-42.32 495.36,-40.56 493.43,-38.79 491.76,-37 490.35,-35.2 489.23,-33.41 488.4,-31.61 487.88,-29.83 487.68,-28.05 487.8,-26.3 488.26,-24.56 489.06,-22.85 490.2,-21.17 491.7,-19.53 493.55,-17.93 495.74,-16.38 498.29,-14.87 501.19,-13.41 504.43,-12.02 508.01,-10.68 511.91,-9.41 516.13,-8.21 520.65,-7.08 525.46,-6.02 530.55,-5.05 535.89,-4.15 541.46,-3.33 547.26,-2.6 553.24,-1.96 559.4,-1.4 565.7,-0.94 572.12,-0.56 578.64,-0.28 585.23,-0.09 591.86,0 598.5,0 605.12,-0.09"/>
<text text-anchor="middle" x="595.18" y="-44.11" font-family="Arial" font-size="11.00">PARETO&#45;EFFIZIENZ</text>
<text text-anchor="middle" x="595.18" y="-30.61" font-family="Arial" font-size="11.00">(Maximale Rentensumme,</text>
<text text-anchor="middle" x="595.18" y="-17.11" font-family="Arial" font-size="11.00">minimale Verschwendung)</text>
</g>
<!-- Market&#45;&gt;Efficiency -->
<g id="edge8" class="edge">
<title>Market&#45;&gt;Efficiency</title>
<path fill="none" stroke="black" d="M595.18,-142.42C595.18,-123.78 595.18,-100.57 595.18,-80.53"/>
<polygon fill="black" stroke="black" points="598.68,-80.66 595.18,-70.66 591.68,-80.66 598.68,-80.66"/>
<text text-anchor="middle" x="640.55" y="-100.81" font-family="Times New Roman,serif" font-size="14.00">idealer Outcome</text>
</g>
<!-- Failure -->
<g id="node8" class="node">
<title>Failure</title>
<polygon fill="#ffcdd2" stroke="black" points="865.68,-58.56 774.68,-58.56 774.68,-10.06 865.68,-10.06 865.68,-58.56"/>
<text text-anchor="middle" x="820.18" y="-44.11" font-family="Arial" font-size="11.00" fill="#b71c1c">RISIKEN:</text>
<text text-anchor="middle" x="820.18" y="-30.61" font-family="Arial" font-size="11.00" fill="#b71c1c">Marktversagen</text>
<text text-anchor="middle" x="820.18" y="-17.11" font-family="Arial" font-size="11.00" fill="#b71c1c">Staatsversagen</text>
</g>
<!-- Market&#45;&gt;Failure -->
<g id="edge9" class="edge">
<title>Market&#45;&gt;Failure</title>
<path fill="none" stroke="black" stroke-dasharray="1,5" d="M636.5,-151.44C654.81,-140.05 676.59,-126.45 696.18,-114.11 721.77,-98 750.25,-79.91 773.46,-65.13"/>
<polygon fill="black" stroke="black" points="775.23,-68.15 781.78,-59.82 771.47,-62.25 775.23,-68.15"/>
</g>
<!-- Cons -->
<g id="node3" class="node">
<title>Cons</title>
<polygon fill="#bbdefb" stroke="black" points="548.55,-342.65 423.8,-342.65 423.8,-294.15 548.55,-294.15 548.55,-342.65"/>
<text text-anchor="middle" x="486.18" y="-328.2" font-family="Arial" font-size="11.00">Nutzenmaximierung</text>
<text text-anchor="middle" x="486.18" y="-314.7" font-family="Arial" font-size="11.00">Präferenzsignale</text>
<text text-anchor="middle" x="486.18" y="-301.2" font-family="Arial" font-size="11.00">Soziale Verantwortung</text>
</g>
<!-- Cons&#45;&gt;Market -->
<g id="edge2" class="edge">
<title>Cons&#45;&gt;Market</title>
<path fill="none" stroke="black" d="M493.6,-293.87C499.25,-278.23 508.09,-257.76 519.93,-242.11 527.88,-231.6 537.89,-221.69 548,-212.98"/>
<polygon fill="black" stroke="black" points="550.22,-215.69 555.69,-206.61 545.75,-210.29 550.22,-215.69"/>
<text text-anchor="middle" x="548.05" y="-245.31" font-family="Times New Roman,serif" font-size="14.00">Nachfrage</text>
</g>
<!-- Firms -->
<g id="node4" class="node">
<title>Firms</title>
<polygon fill="#c8e6c9" stroke="black" points="734.93,-342.65 591.43,-342.65 591.43,-294.15 734.93,-294.15 734.93,-342.65"/>
<text text-anchor="middle" x="663.18" y="-328.2" font-family="Arial" font-size="11.00">Gewinnmaximierung</text>
<text text-anchor="middle" x="663.18" y="-314.7" font-family="Arial" font-size="11.00">Kosteneffizienz</text>
<text text-anchor="middle" x="663.18" y="-301.2" font-family="Arial" font-size="11.00">Innovation &amp; Arbeitsteilung</text>
</g>
<!-- Firms&#45;&gt;Market -->
<g id="edge3" class="edge">
<title>Firms&#45;&gt;Market</title>
<path fill="none" stroke="black" d="M621.46,-293.67C609.24,-284.43 597.37,-272.66 590.68,-258.61 585.49,-247.74 584.36,-235.05 585.12,-223.05"/>
<polygon fill="black" stroke="black" points="588.57,-223.67 586.19,-213.34 581.62,-222.9 588.57,-223.67"/>
<text text-anchor="middle" x="613.93" y="-245.31" font-family="Times New Roman,serif" font-size="14.00">Angebot</text>
</g>
<!-- State -->
<g id="node5" class="node">
<title>State</title>
<polygon fill="#ffccbc" stroke="black" points="918.8,-342.65 777.55,-342.65 777.55,-294.15 918.8,-294.15 918.8,-342.65"/>
<text text-anchor="middle" x="848.18" y="-328.2" font-family="Arial" font-size="11.00">Ordnungsrahmen</text>
<text text-anchor="middle" x="848.18" y="-314.7" font-family="Arial" font-size="11.00">Marktversagen korrigieren</text>
<text text-anchor="middle" x="848.18" y="-301.2" font-family="Arial" font-size="11.00">Öffentliche Güter</text>
</g>
<!-- State&#45;&gt;Market -->
<g id="edge4" class="edge">
<title>State&#45;&gt;Market</title>
<path fill="none" stroke="black" d="M778.65,-293.74C738.26,-279.74 693.64,-263.78 684.93,-258.61 665.11,-246.86 645.64,-230.4 629.94,-215.51"/>
<polygon fill="black" stroke="black" points="632.79,-213.4 623.17,-208.95 627.92,-218.43 632.79,-213.4"/>
<text text-anchor="middle" x="750.55" y="-245.31" font-family="Times New Roman,serif" font-size="14.00">Regulierung / Korrektur</text>
</g>
<!-- State&#45;&gt;Failure -->
<g id="edge10" class="edge">
<title>State&#45;&gt;Failure</title>
<path fill="none" stroke="black" stroke-dasharray="1,5" d="M845.84,-293.83C840.91,-244.16 829.42,-128.48 823.64,-70.19"/>
<polygon fill="black" stroke="black" points="827.15,-70.12 822.68,-60.51 820.18,-70.81 827.15,-70.12"/>
</g>
<!-- NGO -->
<g id="node6" class="node">
<title>NGO</title>
<polygon fill="#e1bee7" stroke="black" points="725.18,-477.15 601.18,-477.15 601.18,-428.65 725.18,-428.65 725.18,-477.15"/>
<text text-anchor="middle" x="663.18" y="-462.7" font-family="Arial" font-size="11.00">Überwachung &amp; Moral</text>
<text text-anchor="middle" x="663.18" y="-449.2" font-family="Arial" font-size="11.00">Öffentliche Interessen</text>
<text text-anchor="middle" x="663.18" y="-435.7" font-family="Arial" font-size="11.00">Nischen&#45;Bereitstellung</text>
</g>
<!-- NGO&#45;&gt;Cons -->
<g id="edge7" class="edge">
<title>NGO&#45;&gt;Cons</title>
<path fill="none" stroke="black" d="M604.95,-428.22C588.73,-420.32 571.61,-410.67 557.18,-399.65 539.5,-386.15 522.85,-367.76 510.13,-351.99"/>
<polygon fill="black" stroke="black" points="512.97,-349.95 504.04,-344.26 507.47,-354.28 512.97,-349.95"/>
<text text-anchor="middle" x="605.18" y="-386.35" font-family="Times New Roman,serif" font-size="14.00">Meinungsbildung</text>
</g>
<!-- NGO&#45;&gt;Firms -->
<g id="edge5" class="edge">
<title>NGO&#45;&gt;Firms</title>
<path fill="none" stroke="black" d="M663.18,-428.21C663.18,-407.67 663.18,-377.67 663.18,-354.37"/>
<polygon fill="black" stroke="black" points="666.68,-354.4 663.18,-344.4 659.68,-354.4 666.68,-354.4"/>
<text text-anchor="middle" x="714.93" y="-386.35" font-family="Times New Roman,serif" font-size="14.00">Moralischer Druck</text>
</g>
<!-- NGO&#45;&gt;State -->
<g id="edge6" class="edge">
<title>NGO&#45;&gt;State</title>
<path fill="none" stroke="black" d="M725.55,-428.94C743.09,-421.03 761.61,-411.19 777.18,-399.65 795.16,-386.31 811.93,-367.77 824.65,-351.88"/>
<polygon fill="black" stroke="black" points="827.34,-354.11 830.72,-344.07 821.82,-349.82 827.34,-354.11"/>
<text text-anchor="middle" x="855.75" y="-386.35" font-family="Times New Roman,serif" font-size="14.00">Erzeugt Öffentlichkeit</text>
</g>
</g>
</svg>
