<?xml version="1.0" encoding="UTF-8" standalone="no"?>
<!DOCTYPE svg PUBLIC "-//W3C//DTD SVG 1.1//EN"
 "http://www.w3.org/Graphics/SVG/1.1/DTD/svg11.dtd">
<!-- Generated by graphviz version 12.2.1 (20241206.2353)
 -->
<!-- Title: PerspektivenVergleich Pages: 1 -->
<svg width="374pt" height="474pt"
 viewBox="0.00 0.00 374.00 473.50" xmlns="http://www.w3.org/2000/svg" xmlns:xlink="http://www.w3.org/1999/xlink">
<g id="graph0" class="graph" transform="scale(1 1) rotate(0) translate(4 469.5)">
<title>PerspektivenVergleich</title>
<polygon fill="white" stroke="none" points="-4,4 -4,-469.5 370,-469.5 370,4 -4,4"/>
<g id="clust1" class="cluster">
<title>cluster_bwl</title>
<polygon fill="none" stroke="#1e88e5" stroke-dasharray="5,2" points="8,-128.5 8,-395.5 166,-395.5 166,-128.5 8,-128.5"/>
<text text-anchor="middle" x="87" y="-378.2" font-family="Times New Roman,serif" font-size="14.00">Betriebswirtschaft (BWL)</text>
<text text-anchor="middle" x="87" y="-361.7" font-family="Times New Roman,serif" font-size="14.00">&quot;Die Einzelwirtschaft&quot;</text>
</g>
<g id="clust2" class="cluster">
<title>cluster_vwl</title>
<polygon fill="none" stroke="#388e3c" stroke-dasharray="5,2" points="176,-128.5 176,-395.5 358,-395.5 358,-128.5 176,-128.5"/>
<text text-anchor="middle" x="267" y="-378.2" font-family="Times New Roman,serif" font-size="14.00">Volkswirtschaft (VWL)</text>
<text text-anchor="middle" x="267" y="-361.7" font-family="Times New Roman,serif" font-size="14.00">&quot;Die Wirtschaftsordnung&quot;</text>
</g>
<!-- Root -->
<g id="node1" class="node">
<title>Root</title>
<path fill="#37474f" stroke="black" d="M235.38,-465.5C235.38,-465.5 116.62,-465.5 116.62,-465.5 110.62,-465.5 104.62,-459.5 104.62,-453.5 104.62,-453.5 104.62,-441.5 104.62,-441.5 104.62,-435.5 110.62,-429.5 116.62,-429.5 116.62,-429.5 235.38,-429.5 235.38,-429.5 241.38,-429.5 247.38,-435.5 247.38,-441.5 247.38,-441.5 247.38,-453.5 247.38,-453.5 247.38,-459.5 241.38,-465.5 235.38,-465.5"/>
<text text-anchor="middle" x="176" y="-443.8" font-family="Helvetica,sans-Serif" font-size="11.00" fill="white">Wirtschaftswissenschaften</text>
</g>
<!-- BWL_Focus -->
<g id="node2" class="node">
<title>BWL_Focus</title>
<path fill="#bbdefb" stroke="black" d="M144.5,-346.5C144.5,-346.5 29.5,-346.5 29.5,-346.5 23.5,-346.5 17.5,-340.5 17.5,-334.5 17.5,-334.5 17.5,-322.5 17.5,-322.5 17.5,-316.5 23.5,-310.5 29.5,-310.5 29.5,-310.5 144.5,-310.5 144.5,-310.5 150.5,-310.5 156.5,-316.5 156.5,-322.5 156.5,-322.5 156.5,-334.5 156.5,-334.5 156.5,-340.5 150.5,-346.5 144.5,-346.5"/>
<text text-anchor="middle" x="87" y="-331.55" font-family="Helvetica,sans-Serif" font-size="11.00">Perspektive des Akteurs</text>
<text text-anchor="middle" x="87" y="-318.05" font-family="Helvetica,sans-Serif" font-size="11.00">(Unternehmen von innen)</text>
</g>
<!-- Root&#45;&gt;BWL_Focus -->
<g id="edge5" class="edge">
<title>Root&#45;&gt;BWL_Focus</title>
<path fill="none" stroke="black" d="M162.87,-429.24C148.14,-409.88 124.1,-378.27 107.03,-355.83"/>
<polygon fill="black" stroke="black" points="109.94,-353.88 101.1,-348.04 104.37,-358.12 109.94,-353.88"/>
</g>
<!-- VWL_Focus -->
<g id="node5" class="node">
<title>VWL_Focus</title>
<path fill="#c8e6c9" stroke="black" d="M326.12,-346.5C326.12,-346.5 205.88,-346.5 205.88,-346.5 199.88,-346.5 193.88,-340.5 193.88,-334.5 193.88,-334.5 193.88,-322.5 193.88,-322.5 193.88,-316.5 199.88,-310.5 205.88,-310.5 205.88,-310.5 326.12,-310.5 326.12,-310.5 332.12,-310.5 338.12,-316.5 338.12,-322.5 338.12,-322.5 338.12,-334.5 338.12,-334.5 338.12,-340.5 332.12,-346.5 326.12,-346.5"/>
<text text-anchor="middle" x="266" y="-331.55" font-family="Helvetica,sans-Serif" font-size="11.00">Perspektive des Gestalters</text>
<text text-anchor="middle" x="266" y="-318.05" font-family="Helvetica,sans-Serif" font-size="11.00">(Das System als Ganzes)</text>
</g>
<!-- Root&#45;&gt;VWL_Focus -->
<g id="edge6" class="edge">
<title>Root&#45;&gt;VWL_Focus</title>
<path fill="none" stroke="black" d="M189.28,-429.24C204.17,-409.88 228.48,-378.27 245.75,-355.83"/>
<polygon fill="black" stroke="black" points="248.42,-358.09 251.74,-348.03 242.87,-353.83 248.42,-358.09"/>
</g>
<!-- BWL_Goal -->
<g id="node3" class="node">
<title>BWL_Goal</title>
<path fill="#e3f2fd" stroke="black" d="M136.38,-259.5C136.38,-259.5 35.62,-259.5 35.62,-259.5 29.62,-259.5 23.63,-253.5 23.63,-247.5 23.63,-247.5 23.63,-235.5 23.63,-235.5 23.63,-229.5 29.63,-223.5 35.63,-223.5 35.63,-223.5 136.38,-223.5 136.38,-223.5 142.38,-223.5 148.38,-229.5 148.38,-235.5 148.38,-235.5 148.38,-247.5 148.38,-247.5 148.38,-253.5 142.38,-259.5 136.38,-259.5"/>
<text text-anchor="middle" x="86" y="-244.55" font-family="Helvetica,sans-Serif" font-size="11.00">Gewinnmaximierung &amp;</text>
<text text-anchor="middle" x="86" y="-231.05" font-family="Helvetica,sans-Serif" font-size="11.00">Wettbewerbsfähigkeit</text>
</g>
<!-- BWL_Focus&#45;&gt;BWL_Goal -->
<g id="edge1" class="edge">
<title>BWL_Focus&#45;&gt;BWL_Goal</title>
<path fill="none" stroke="black" d="M86.8,-310.3C86.67,-299.08 86.49,-284.17 86.34,-271.19"/>
<polygon fill="black" stroke="black" points="89.84,-271.44 86.22,-261.48 82.84,-271.52 89.84,-271.44"/>
</g>
<!-- BWL_Method -->
<g id="node4" class="node">
<title>BWL_Method</title>
<path fill="#e3f2fd" stroke="black" d="M144.25,-172.5C144.25,-172.5 27.75,-172.5 27.75,-172.5 21.75,-172.5 15.75,-166.5 15.75,-160.5 15.75,-160.5 15.75,-148.5 15.75,-148.5 15.75,-142.5 21.75,-136.5 27.75,-136.5 27.75,-136.5 144.25,-136.5 144.25,-136.5 150.25,-136.5 156.25,-142.5 156.25,-148.5 156.25,-148.5 156.25,-160.5 156.25,-160.5 156.25,-166.5 150.25,-172.5 144.25,-172.5"/>
<text text-anchor="middle" x="86" y="-157.55" font-family="Helvetica,sans-Serif" font-size="11.00">Managementwissenschaft</text>
<text text-anchor="middle" x="86" y="-144.05" font-family="Helvetica,sans-Serif" font-size="11.00">Entscheidungstheorie</text>
</g>
<!-- BWL_Goal&#45;&gt;BWL_Method -->
<g id="edge2" class="edge">
<title>BWL_Goal&#45;&gt;BWL_Method</title>
<path fill="none" stroke="black" d="M86,-223.3C86,-212.08 86,-197.17 86,-184.19"/>
<polygon fill="black" stroke="black" points="89.5,-184.48 86,-174.48 82.5,-184.48 89.5,-184.48"/>
</g>
<!-- Conflict -->
<g id="node8" class="node">
<title>Conflict</title>
<path fill="#fff9c4" stroke="black" d="M162.29,-67.36C162.29,-67.36 30.21,-37.64 30.21,-37.64 24.35,-36.32 24.35,-33.68 30.21,-32.36 30.21,-32.36 162.29,-2.64 162.29,-2.64 168.15,-1.32 179.85,-1.32 185.71,-2.64 185.71,-2.64 317.79,-32.36 317.79,-32.36 323.65,-33.68 323.65,-36.32 317.79,-37.64 317.79,-37.64 185.71,-67.36 185.71,-67.36 179.85,-68.68 168.15,-68.68 162.29,-67.36"/>
<text text-anchor="middle" x="174" y="-38.05" font-family="Helvetica,sans-Serif" font-size="11.00">SPANNUNGSFELD</text>
<text text-anchor="middle" x="174" y="-24.55" font-family="Helvetica,sans-Serif" font-size="11.00">Einzel&#45; vs. Gesamtrationalität</text>
</g>
<!-- BWL_Method&#45;&gt;Conflict -->
<g id="edge7" class="edge">
<title>BWL_Method&#45;&gt;Conflict</title>
<path fill="none" stroke="black" stroke-dasharray="1,5" d="M98.98,-136.16C111.15,-119.92 129.74,-95.1 145.37,-74.23"/>
<polygon fill="black" stroke="black" points="147.98,-76.58 151.18,-66.47 142.38,-72.38 147.98,-76.58"/>
<text text-anchor="middle" x="150.24" y="-98.2" font-family="Times New Roman,serif" font-size="14.00">Handeln</text>
</g>
<!-- VWL_Goal -->
<g id="node6" class="node">
<title>VWL_Goal</title>
<path fill="#e8f5e9" stroke="black" d="M337.62,-259.5C337.62,-259.5 196.38,-259.5 196.38,-259.5 190.38,-259.5 184.38,-253.5 184.38,-247.5 184.38,-247.5 184.38,-235.5 184.38,-235.5 184.38,-229.5 190.38,-223.5 196.38,-223.5 196.38,-223.5 337.62,-223.5 337.62,-223.5 343.62,-223.5 349.62,-229.5 349.62,-235.5 349.62,-235.5 349.62,-247.5 349.62,-247.5 349.62,-253.5 343.62,-259.5 337.62,-259.5"/>
<text text-anchor="middle" x="267" y="-244.55" font-family="Helvetica,sans-Serif" font-size="11.00">Gemeinwohl &amp;</text>
<text text-anchor="middle" x="267" y="-231.05" font-family="Helvetica,sans-Serif" font-size="11.00">Gesamtwirtschaftliche Stabilität</text>
</g>
<!-- VWL_Focus&#45;&gt;VWL_Goal -->
<g id="edge3" class="edge">
<title>VWL_Focus&#45;&gt;VWL_Goal</title>
<path fill="none" stroke="black" d="M266.2,-310.3C266.33,-299.08 266.51,-284.17 266.66,-271.19"/>
<polygon fill="black" stroke="black" points="270.16,-271.52 266.78,-261.48 263.16,-271.44 270.16,-271.52"/>
</g>
<!-- VWL_Method -->
<g id="node7" class="node">
<title>VWL_Method</title>
<path fill="#e8f5e9" stroke="black" d="M319,-172.5C319,-172.5 207,-172.5 207,-172.5 201,-172.5 195,-166.5 195,-160.5 195,-160.5 195,-148.5 195,-148.5 195,-142.5 201,-136.5 207,-136.5 207,-136.5 319,-136.5 319,-136.5 325,-136.5 331,-142.5 331,-148.5 331,-148.5 331,-160.5 331,-160.5 331,-166.5 325,-172.5 319,-172.5"/>
<text text-anchor="middle" x="263" y="-157.55" font-family="Helvetica,sans-Serif" font-size="11.00">Mikro&#45; &amp; Makroökonomie</text>
<text text-anchor="middle" x="263" y="-144.05" font-family="Helvetica,sans-Serif" font-size="11.00">Ordnungspolitik</text>
</g>
<!-- VWL_Goal&#45;&gt;VWL_Method -->
<g id="edge4" class="edge">
<title>VWL_Goal&#45;&gt;VWL_Method</title>
<path fill="none" stroke="black" d="M266.19,-223.3C265.66,-212.08 264.96,-197.17 264.35,-184.19"/>
<polygon fill="black" stroke="black" points="267.86,-184.3 263.89,-174.48 260.87,-184.63 267.86,-184.3"/>
</g>
<!-- VWL_Method&#45;&gt;Conflict -->
<g id="edge8" class="edge">
<title>VWL_Method&#45;&gt;Conflict</title>
<path fill="none" stroke="black" stroke-dasharray="1,5" d="M249.87,-136.16C237.57,-119.92 218.77,-95.1 202.96,-74.23"/>
<polygon fill="black" stroke="black" points="205.91,-72.33 197.08,-66.47 200.33,-76.55 205.91,-72.33"/>
<text text-anchor="middle" x="262.46" y="-98.2" font-family="Times New Roman,serif" font-size="14.00">Regulierung</text>
</g>
</g>
</svg>
