<?xml version="1.0" encoding="UTF-8" standalone="no"?>
<!DOCTYPE svg PUBLIC "-//W3C//DTD SVG 1.1//EN"
 "http://www.w3.org/Graphics/SVG/1.1/DTD/svg11.dtd">
<!-- Generated by graphviz version 12.2.1 (20241206.2353)
 -->
<!-- Title: Kompakte_VWL_Effizienz Pages: 1 -->
<svg width="455pt" height="448pt"
 viewBox="0.00 0.00 454.72 447.64" xmlns="http://www.w3.org/2000/svg" xmlns:xlink="http://www.w3.org/1999/xlink">
<g id="graph0" class="graph" transform="scale(1 1) rotate(0) translate(4 443.64)">
<title>Kompakte_VWL_Effizienz</title>
<polygon fill="white" stroke="none" points="-4,4 -4,-443.64 450.72,-443.64 450.72,4 -4,4"/>
<g id="clust1" class="cluster">
<title>cluster_prinzipien</title>
<polygon fill="none" stroke="#9e9e9e" stroke-dasharray="1,5" points="83.25,-104.14 83.25,-269.76 271.25,-269.76 271.25,-104.14 83.25,-104.14"/>
<text text-anchor="middle" x="177.25" y="-252.46" font-family="Times New Roman,serif" font-size="14.00">Prinzipien &amp; Methoden</text>
</g>
<g id="clust2" class="cluster">
<title>cluster_arten</title>
<polygon fill="none" stroke="#9e9e9e" stroke-dasharray="1,5" points="284.25,-104.14 284.25,-276.89 434.25,-276.89 434.25,-104.14 284.25,-104.14"/>
<text text-anchor="middle" x="359.25" y="-259.59" font-family="Times New Roman,serif" font-size="14.00">Effizienz&#45;Dimensionen</text>
</g>
<!-- Root -->
<g id="node1" class="node">
<title>Root</title>
<path fill="#37474f" stroke="black" d="M149.25,-439.64C149.25,-439.64 37.25,-439.64 37.25,-439.64 31.25,-439.64 25.25,-433.64 25.25,-427.64 25.25,-427.64 25.25,-415.64 25.25,-415.64 25.25,-409.64 31.25,-403.64 37.25,-403.64 37.25,-403.64 149.25,-403.64 149.25,-403.64 155.25,-403.64 161.25,-409.64 161.25,-415.64 161.25,-415.64 161.25,-427.64 161.25,-427.64 161.25,-433.64 155.25,-439.64 149.25,-439.64"/>
<text text-anchor="middle" x="93.25" y="-417.36" font-family="Helvetica,sans-Serif" font-size="12.00" fill="white">Ökonomische Analyse</text>
</g>
<!-- Effektiv -->
<g id="node2" class="node">
<title>Effektiv</title>
<path fill="#e3f2fd" stroke="black" stroke-width="2" d="M140.5,-358.64C140.5,-358.64 12,-358.64 12,-358.64 6,-358.64 0,-352.64 0,-346.64 0,-346.64 0,-319.89 0,-319.89 0,-313.89 6,-307.89 12,-307.89 12,-307.89 140.5,-307.89 140.5,-307.89 146.5,-307.89 152.5,-313.89 152.5,-319.89 152.5,-319.89 152.5,-346.64 152.5,-346.64 152.5,-352.64 146.5,-358.64 140.5,-358.64"/>
<text text-anchor="middle" x="76.25" y="-343.24" font-family="Helvetica,sans-Serif" font-size="12.00">EFFEKTIVITÄT</text>
<text text-anchor="middle" x="76.25" y="-328.99" font-family="Helvetica,sans-Serif" font-size="12.00">(Zielerreichung</text>
<text text-anchor="middle" x="76.25" y="-314.74" font-family="Helvetica,sans-Serif" font-size="12.00"> „Die richtigen Dinge tun“)</text>
</g>
<!-- Root&#45;&gt;Effektiv -->
<g id="edge3" class="edge">
<title>Root&#45;&gt;Effektiv</title>
<path fill="none" stroke="black" d="M89.81,-403.16C87.96,-393.77 85.61,-381.83 83.39,-370.53"/>
<polygon fill="black" stroke="black" points="86.89,-370.2 81.52,-361.06 80.02,-371.55 86.89,-370.2"/>
</g>
<!-- Effizienz -->
<g id="node3" class="node">
<title>Effizienz</title>
<path fill="#e8f5e9" stroke="black" stroke-width="2" d="M308.75,-358.64C308.75,-358.64 193.75,-358.64 193.75,-358.64 187.75,-358.64 181.75,-352.64 181.75,-346.64 181.75,-346.64 181.75,-319.89 181.75,-319.89 181.75,-313.89 187.75,-307.89 193.75,-307.89 193.75,-307.89 308.75,-307.89 308.75,-307.89 314.75,-307.89 320.75,-313.89 320.75,-319.89 320.75,-319.89 320.75,-346.64 320.75,-346.64 320.75,-352.64 314.75,-358.64 308.75,-358.64"/>
<text text-anchor="middle" x="251.25" y="-343.24" font-family="Helvetica,sans-Serif" font-size="12.00">EFFIZIENZ</text>
<text text-anchor="middle" x="251.25" y="-328.99" font-family="Helvetica,sans-Serif" font-size="12.00">(Mittel&#45;Zweck&#45;Relation</text>
<text text-anchor="middle" x="251.25" y="-314.74" font-family="Helvetica,sans-Serif" font-size="12.00"> „Die Dinge richtig tun“)</text>
</g>
<!-- Root&#45;&gt;Effizienz -->
<g id="edge4" class="edge">
<title>Root&#45;&gt;Effizienz</title>
<path fill="none" stroke="black" d="M125.22,-403.16C145.26,-392.2 171.65,-377.78 195.1,-364.96"/>
<polygon fill="black" stroke="black" points="196.52,-368.17 203.62,-360.3 193.16,-362.03 196.52,-368.17"/>
</g>
<!-- Rational -->
<g id="node4" class="node">
<title>Rational</title>
<path fill="#f1f8e9" stroke="black" d="M251.5,-237.26C251.5,-237.26 111,-237.26 111,-237.26 105,-237.26 99,-231.26 99,-225.26 99,-225.26 99,-212.76 99,-212.76 99,-206.76 105,-200.76 111,-200.76 111,-200.76 251.5,-200.76 251.5,-200.76 257.5,-200.76 263.5,-206.76 263.5,-212.76 263.5,-212.76 263.5,-225.26 263.5,-225.26 263.5,-231.26 257.5,-237.26 251.5,-237.26"/>
<text text-anchor="middle" x="181.25" y="-221.86" font-family="Helvetica,sans-Serif" font-size="12.00">Rationalprinzip</text>
<text text-anchor="middle" x="181.25" y="-207.61" font-family="Helvetica,sans-Serif" font-size="12.00">(Minimal&#45; &amp; Maximalprinzip)</text>
</g>
<!-- Effizienz&#45;&gt;Rational -->
<g id="edge5" class="edge">
<title>Effizienz&#45;&gt;Rational</title>
<path fill="none" stroke="black" d="M235.54,-307.07C224.44,-289.26 209.57,-265.42 198.2,-247.18"/>
<polygon fill="black" stroke="black" points="201.18,-245.36 192.92,-238.73 195.25,-249.07 201.18,-245.36"/>
</g>
<!-- Marginal -->
<g id="node5" class="node">
<title>Marginal</title>
<path fill="#f1f8e9" stroke="black" d="M251.25,-148.64C251.25,-148.64 103.25,-148.64 103.25,-148.64 97.25,-148.64 91.25,-142.64 91.25,-136.64 91.25,-136.64 91.25,-124.14 91.25,-124.14 91.25,-118.14 97.25,-112.14 103.25,-112.14 103.25,-112.14 251.25,-112.14 251.25,-112.14 257.25,-112.14 263.25,-118.14 263.25,-124.14 263.25,-124.14 263.25,-136.64 263.25,-136.64 263.25,-142.64 257.25,-148.64 251.25,-148.64"/>
<text text-anchor="middle" x="177.25" y="-133.24" font-family="Helvetica,sans-Serif" font-size="12.00">Marginalanalyse</text>
<text text-anchor="middle" x="177.25" y="-118.99" font-family="Helvetica,sans-Serif" font-size="12.00">(Grenzkosten = Grenznutzen)</text>
</g>
<!-- Effizienz&#45;&gt;Marginal -->
<g id="edge6" class="edge">
<title>Effizienz&#45;&gt;Marginal</title>
<path fill="none" stroke="black" d="M180.91,-310.98C136.68,-297.26 87.37,-281.21 84.25,-276.89 62.59,-246.89 66.82,-226.27 84.25,-193.64 93.04,-177.17 108.33,-164.3 124,-154.64"/>
<polygon fill="black" stroke="black" points="125.51,-157.81 132.44,-149.79 122.03,-151.74 125.51,-157.81"/>
</g>
<!-- Allok -->
<g id="node6" class="node">
<title>Allok</title>
<path fill="#fff9c4" stroke="black" d="M406,-244.39C406,-244.39 304.5,-244.39 304.5,-244.39 298.5,-244.39 292.5,-238.39 292.5,-232.39 292.5,-232.39 292.5,-205.64 292.5,-205.64 292.5,-199.64 298.5,-193.64 304.5,-193.64 304.5,-193.64 406,-193.64 406,-193.64 412,-193.64 418,-199.64 418,-205.64 418,-205.64 418,-232.39 418,-232.39 418,-238.39 412,-244.39 406,-244.39"/>
<text text-anchor="middle" x="355.25" y="-228.99" font-family="Helvetica,sans-Serif" font-size="12.00">technische Effizienz,</text>
<text text-anchor="middle" x="355.25" y="-214.74" font-family="Helvetica,sans-Serif" font-size="12.00"> Kosteneffizienz und</text>
<text text-anchor="middle" x="355.25" y="-200.49" font-family="Helvetica,sans-Serif" font-size="12.00"> allokative Effizienz</text>
</g>
<!-- Effizienz&#45;&gt;Allok -->
<g id="edge7" class="edge">
<title>Effizienz&#45;&gt;Allok</title>
<path fill="none" stroke="black" d="M274.59,-307.07C289.41,-291.07 308.75,-270.2 324.78,-252.9"/>
<polygon fill="black" stroke="black" points="327.09,-255.56 331.32,-245.84 321.95,-250.8 327.09,-255.56"/>
</g>
<!-- Dyn -->
<g id="node7" class="node">
<title>Dyn</title>
<path fill="#fff9c4" stroke="black" d="M413.75,-148.64C413.75,-148.64 304.75,-148.64 304.75,-148.64 298.75,-148.64 292.75,-142.64 292.75,-136.64 292.75,-136.64 292.75,-124.14 292.75,-124.14 292.75,-118.14 298.75,-112.14 304.75,-112.14 304.75,-112.14 413.75,-112.14 413.75,-112.14 419.75,-112.14 425.75,-118.14 425.75,-124.14 425.75,-124.14 425.75,-136.64 425.75,-136.64 425.75,-142.64 419.75,-148.64 413.75,-148.64"/>
<text text-anchor="middle" x="359.25" y="-133.24" font-family="Helvetica,sans-Serif" font-size="12.00">Statisch &amp; Dynamisch</text>
<text text-anchor="middle" x="359.25" y="-118.99" font-family="Helvetica,sans-Serif" font-size="12.00">(Kosten &amp; Innovation)</text>
</g>
<!-- Effizienz&#45;&gt;Dyn -->
<g id="edge8" class="edge">
<title>Effizienz&#45;&gt;Dyn</title>
<path fill="none" stroke="black" d="M321.62,-330.12C360.92,-324.87 406.94,-311.1 432.25,-276.89 454.26,-247.14 447.75,-227.23 432.25,-193.64 425.29,-178.55 412.66,-165.76 399.85,-155.78"/>
<polygon fill="black" stroke="black" points="401.92,-152.96 391.78,-149.9 397.8,-158.62 401.92,-152.96"/>
</g>
<!-- Rational&#45;&gt;Marginal -->
<!-- Pareto -->
<g id="node8" class="node">
<title>Pareto</title>
<path fill="#d1c4e9" stroke="black" d="M276.91,-0.08C276.91,-0.08 282.12,-0.2 282.12,-0.2 282.35,-0.21 282.79,-0.22 283.01,-0.23 283.01,-0.23 288.16,-0.41 288.16,-0.41 288.38,-0.42 288.83,-0.43 289.05,-0.44 289.05,-0.44 294.11,-0.68 294.11,-0.68 294.33,-0.69 294.78,-0.72 295,-0.73 295,-0.73 299.95,-1.03 299.95,-1.03 300.17,-1.04 300.62,-1.07 300.84,-1.09 300.84,-1.09 305.66,-1.44 305.66,-1.44 305.88,-1.46 306.32,-1.49 306.54,-1.51 306.54,-1.51 311.2,-1.92 311.2,-1.92 311.42,-1.94 311.86,-1.98 312.08,-2 312.08,-2 316.57,-2.46 316.57,-2.46 316.79,-2.48 317.23,-2.53 317.45,-2.56 317.45,-2.56 321.74,-3.07 321.74,-3.07 321.96,-3.09 322.4,-3.15 322.61,-3.18 322.61,-3.18 326.69,-3.74 326.69,-3.74 326.9,-3.77 327.34,-3.83 327.56,-3.87 327.56,-3.87 331.4,-4.47 331.4,-4.47 331.62,-4.5 332.05,-4.57 332.27,-4.61 332.27,-4.61 335.86,-5.25 335.86,-5.25 336.07,-5.29 336.51,-5.37 336.73,-5.42 336.73,-5.42 340.05,-6.09 340.05,-6.09 340.27,-6.14 340.7,-6.23 340.91,-6.28 340.91,-6.28 343.96,-6.98 343.96,-6.98 344.18,-7.03 344.6,-7.14 344.82,-7.2 344.82,-7.2 347.58,-7.93 347.58,-7.93 347.79,-7.98 348.22,-8.1 348.43,-8.17 348.43,-8.17 350.9,-8.92 350.9,-8.92 351.11,-8.98 351.53,-9.12 351.74,-9.19 351.74,-9.19 353.9,-9.95 353.9,-9.95 354.11,-10.02 354.53,-10.18 354.73,-10.26 354.73,-10.26 356.6,-11.02 356.6,-11.02 356.8,-11.11 357.2,-11.29 357.4,-11.38 357.4,-11.38 358.97,-12.13 358.97,-12.13 359.17,-12.23 359.56,-12.43 359.75,-12.54 359.75,-12.54 361.02,-13.27 361.02,-13.27 361.21,-13.38 361.59,-13.62 361.77,-13.75 361.77,-13.75 362.75,-14.44 362.75,-14.44 362.93,-14.57 363.28,-14.85 363.45,-14.99 363.45,-14.99 364.17,-15.64 364.17,-15.64 364.33,-15.79 364.64,-16.1 364.78,-16.27 364.78,-16.27 365.28,-16.86 365.28,-16.86 365.42,-17.03 365.67,-17.39 365.78,-17.58 365.78,-17.58 366.08,-18.1 366.08,-18.1 366.19,-18.29 366.37,-18.69 366.44,-18.9 366.44,-18.9 366.59,-19.37 366.59,-19.37 366.66,-19.58 366.74,-20.01 366.76,-20.23 366.76,-20.23 366.8,-20.67 366.8,-20.67 366.82,-20.89 366.81,-21.33 366.78,-21.55 366.78,-21.55 366.71,-22.01 366.71,-22.01 366.68,-22.23 366.57,-22.66 366.5,-22.86 366.5,-22.86 366.32,-23.38 366.32,-23.38 366.24,-23.58 366.06,-23.98 365.95,-24.18 365.95,-24.18 365.62,-24.76 365.62,-24.76 365.51,-24.95 365.27,-25.32 365.13,-25.49 365.13,-25.49 364.63,-26.14 364.63,-26.14 364.5,-26.32 364.21,-26.65 364.06,-26.81 364.06,-26.81 363.37,-27.53 363.37,-27.53 363.22,-27.69 362.89,-27.99 362.73,-28.13 362.73,-28.13 361.85,-28.9 361.85,-28.9 361.68,-29.04 361.33,-29.32 361.16,-29.45 361.16,-29.45 360.08,-30.26 360.08,-30.26 359.9,-30.39 359.54,-30.65 359.35,-30.77 359.35,-30.77 358.08,-31.6 358.08,-31.6 357.9,-31.73 357.52,-31.96 357.33,-32.07 357.33,-32.07 355.87,-32.93 355.87,-32.93 355.68,-33.04 355.29,-33.26 355.1,-33.36 355.1,-33.36 353.46,-34.23 353.46,-34.23 353.26,-34.34 352.87,-34.54 352.67,-34.63 352.67,-34.63 350.86,-35.51 350.86,-35.51 350.66,-35.61 350.26,-35.79 350.06,-35.88 350.06,-35.88 348.09,-36.76 348.09,-36.76 347.89,-36.85 347.48,-37.02 347.28,-37.11 347.28,-37.11 345.17,-37.97 345.17,-37.97 344.96,-38.06 344.55,-38.22 344.34,-38.3 344.34,-38.3 342.09,-39.16 342.09,-39.16 341.89,-39.23 341.47,-39.39 341.26,-39.46 341.26,-39.46 338.89,-40.3 338.89,-40.3 338.68,-40.37 338.26,-40.52 338.05,-40.59 338.05,-40.59 335.57,-41.4 335.57,-41.4 335.36,-41.47 334.93,-41.61 334.72,-41.67 334.72,-41.67 332.14,-42.46 332.14,-42.46 331.92,-42.53 331.5,-42.65 331.29,-42.71 331.29,-42.71 328.61,-43.48 328.61,-43.48 328.4,-43.54 327.97,-43.65 327.75,-43.71 327.75,-43.71 324.99,-44.44 324.99,-44.44 324.78,-44.5 324.35,-44.61 324.14,-44.66 324.14,-44.66 321.31,-45.35 321.31,-45.35 321.09,-45.4 320.66,-45.51 320.44,-45.56 320.44,-45.56 317.55,-46.21 317.55,-46.21 317.33,-46.26 316.9,-46.35 316.68,-46.4 316.68,-46.4 313.74,-47.01 313.74,-47.01 313.52,-47.06 313.08,-47.14 312.87,-47.19 312.87,-47.19 309.87,-47.76 309.87,-47.76 309.65,-47.8 309.22,-47.88 309,-47.91 309,-47.91 305.96,-48.44 305.96,-48.44 305.75,-48.48 305.31,-48.55 305.09,-48.58 305.09,-48.58 302.02,-49.06 302.02,-49.06 301.8,-49.1 301.36,-49.16 301.14,-49.19 301.14,-49.19 298.05,-49.62 298.05,-49.62 297.83,-49.65 297.39,-49.71 297.17,-49.73 297.17,-49.73 294.04,-50.11 294.04,-50.11 293.82,-50.14 293.39,-50.19 293.17,-50.21 293.17,-50.21 290.02,-50.54 290.02,-50.54 289.8,-50.56 289.36,-50.6 289.14,-50.62 289.14,-50.62 285.98,-50.89 285.98,-50.89 285.76,-50.91 285.32,-50.95 285.1,-50.96 285.1,-50.96 281.93,-51.18 281.93,-51.18 281.71,-51.2 281.27,-51.22 281.05,-51.24 281.05,-51.24 277.87,-51.4 277.87,-51.4 277.65,-51.41 277.21,-51.43 276.99,-51.44 276.99,-51.44 273.8,-51.55 273.8,-51.55 273.58,-51.56 273.14,-51.57 272.92,-51.57 272.92,-51.57 269.73,-51.63 269.73,-51.63 269.51,-51.63 269.07,-51.64 268.84,-51.64 268.84,-51.64 265.66,-51.64 265.66,-51.64 265.43,-51.64 264.99,-51.63 264.77,-51.63 264.77,-51.63 261.58,-51.57 261.58,-51.57 261.36,-51.57 260.92,-51.56 260.7,-51.55 260.7,-51.55 257.51,-51.44 257.51,-51.44 257.29,-51.43 256.85,-51.41 256.63,-51.4 256.63,-51.4 253.45,-51.24 253.45,-51.24 253.23,-51.22 252.79,-51.2 252.57,-51.18 252.57,-51.18 249.4,-50.96 249.4,-50.96 249.18,-50.95 248.74,-50.91 248.52,-50.89 248.52,-50.89 245.36,-50.62 245.36,-50.62 245.14,-50.6 244.7,-50.56 244.48,-50.54 244.48,-50.54 241.33,-50.21 241.33,-50.21 241.11,-50.19 240.68,-50.14 240.46,-50.11 240.46,-50.11 237.33,-49.73 237.33,-49.73 237.11,-49.71 236.67,-49.65 236.45,-49.62 236.45,-49.62 233.36,-49.19 233.36,-49.19 233.14,-49.16 232.7,-49.1 232.48,-49.06 232.48,-49.06 229.41,-48.58 229.41,-48.58 229.19,-48.55 228.75,-48.48 228.54,-48.44 228.54,-48.44 225.5,-47.91 225.5,-47.91 225.28,-47.88 224.85,-47.8 224.63,-47.76 224.63,-47.76 221.63,-47.19 221.63,-47.19 221.42,-47.14 220.98,-47.06 220.76,-47.01 220.76,-47.01 217.82,-46.4 217.82,-46.4 217.6,-46.35 217.17,-46.26 216.95,-46.21 216.95,-46.21 214.06,-45.56 214.06,-45.56 213.84,-45.51 213.41,-45.4 213.19,-45.35 213.19,-45.35 210.36,-44.66 210.36,-44.66 210.15,-44.61 209.72,-44.5 209.51,-44.44 209.51,-44.44 206.75,-43.71 206.75,-43.71 206.53,-43.65 206.1,-43.54 205.89,-43.48 205.89,-43.48 203.21,-42.71 203.21,-42.71 203,-42.65 202.58,-42.53 202.36,-42.46 202.36,-42.46 199.78,-41.67 199.78,-41.67 199.57,-41.61 199.14,-41.47 198.93,-41.4 198.93,-41.4 196.45,-40.59 196.45,-40.59 196.24,-40.52 195.82,-40.37 195.61,-40.3 195.61,-40.3 193.24,-39.46 193.24,-39.46 193.03,-39.39 192.61,-39.23 192.41,-39.16 192.41,-39.16 190.16,-38.3 190.16,-38.3 189.95,-38.22 189.54,-38.06 189.33,-37.97 189.33,-37.97 187.22,-37.11 187.22,-37.11 187.02,-37.02 186.61,-36.85 186.41,-36.76 186.41,-36.76 184.44,-35.88 184.44,-35.88 184.24,-35.79 183.84,-35.61 183.64,-35.51 183.64,-35.51 181.83,-34.63 181.83,-34.63 181.63,-34.54 181.24,-34.34 181.04,-34.23 181.04,-34.23 179.4,-33.36 179.4,-33.36 179.21,-33.26 178.82,-33.04 178.63,-32.93 178.63,-32.93 177.17,-32.07 177.17,-32.07 176.98,-31.96 176.6,-31.73 176.42,-31.6 176.42,-31.6 175.15,-30.77 175.15,-30.77 174.96,-30.65 174.6,-30.39 174.42,-30.26 174.42,-30.26 173.34,-29.45 173.34,-29.45 173.17,-29.32 172.82,-29.04 172.65,-28.9 172.65,-28.9 171.77,-28.13 171.77,-28.13 171.61,-27.99 171.28,-27.69 171.13,-27.53 171.13,-27.53 170.44,-26.81 170.44,-26.81 170.29,-26.65 170,-26.32 169.87,-26.14 169.87,-26.14 169.37,-25.49 169.37,-25.49 169.23,-25.32 168.99,-24.95 168.88,-24.76 168.88,-24.76 168.55,-24.18 168.55,-24.18 168.44,-23.98 168.26,-23.58 168.18,-23.38 168.18,-23.38 168,-22.86 168,-22.86 167.93,-22.66 167.82,-22.23 167.79,-22.01 167.79,-22.01 167.72,-21.55 167.72,-21.55 167.69,-21.33 167.68,-20.89 167.7,-20.67 167.7,-20.67 167.74,-20.23 167.74,-20.23 167.76,-20.01 167.84,-19.58 167.91,-19.37 167.91,-19.37 168.06,-18.9 168.06,-18.9 168.13,-18.69 168.31,-18.29 168.42,-18.1 168.42,-18.1 168.72,-17.58 168.72,-17.58 168.83,-17.39 169.08,-17.03 169.22,-16.86 169.22,-16.86 169.72,-16.27 169.72,-16.27 169.86,-16.1 170.17,-15.79 170.33,-15.64 170.33,-15.64 171.05,-14.99 171.05,-14.99 171.22,-14.85 171.57,-14.57 171.75,-14.44 171.75,-14.44 172.73,-13.75 172.73,-13.75 172.91,-13.62 173.29,-13.38 173.48,-13.27 173.48,-13.27 174.75,-12.54 174.75,-12.54 174.94,-12.43 175.33,-12.23 175.53,-12.13 175.53,-12.13 177.1,-11.38 177.1,-11.38 177.3,-11.29 177.7,-11.11 177.9,-11.02 177.9,-11.02 179.77,-10.26 179.77,-10.26 179.97,-10.18 180.39,-10.02 180.6,-9.95 180.6,-9.95 182.76,-9.19 182.76,-9.19 182.97,-9.12 183.39,-8.98 183.6,-8.92 183.6,-8.92 186.07,-8.17 186.07,-8.17 186.28,-8.1 186.71,-7.98 186.92,-7.93 186.92,-7.93 189.68,-7.2 189.68,-7.2 189.9,-7.14 190.32,-7.03 190.54,-6.98 190.54,-6.98 193.59,-6.28 193.59,-6.28 193.8,-6.23 194.23,-6.14 194.45,-6.09 194.45,-6.09 197.77,-5.42 197.77,-5.42 197.99,-5.37 198.43,-5.29 198.64,-5.25 198.64,-5.25 202.23,-4.61 202.23,-4.61 202.45,-4.57 202.88,-4.5 203.1,-4.47 203.1,-4.47 206.94,-3.87 206.94,-3.87 207.16,-3.83 207.6,-3.77 207.81,-3.74 207.81,-3.74 211.89,-3.18 211.89,-3.18 212.1,-3.15 212.54,-3.09 212.76,-3.07 212.76,-3.07 217.05,-2.56 217.05,-2.56 217.27,-2.53 217.71,-2.48 217.93,-2.46 217.93,-2.46 222.42,-2 222.42,-2 222.64,-1.98 223.08,-1.94 223.3,-1.92 223.3,-1.92 227.96,-1.51 227.96,-1.51 228.18,-1.49 228.62,-1.46 228.84,-1.44 228.84,-1.44 233.66,-1.09 233.66,-1.09 233.88,-1.07 234.33,-1.04 234.55,-1.03 234.55,-1.03 239.5,-0.73 239.5,-0.73 239.72,-0.72 240.17,-0.69 240.39,-0.68 240.39,-0.68 245.45,-0.44 245.45,-0.44 245.67,-0.43 246.12,-0.42 246.34,-0.41 246.34,-0.41 251.49,-0.23 251.49,-0.23 251.71,-0.22 252.15,-0.21 252.38,-0.2 252.38,-0.2 257.59,-0.08 257.59,-0.08 257.81,-0.08 258.26,-0.07 258.48,-0.07 258.48,-0.07 263.73,-0.01 263.73,-0.01 263.95,0 264.4,0 264.62,0 264.62,0 269.88,0 269.88,0 270.1,0 270.55,0 270.77,-0.01 270.77,-0.01 276.02,-0.07 276.02,-0.07 276.24,-0.07 276.69,-0.08 276.91,-0.08"/>
<text text-anchor="middle" x="267.25" y="-28.67" font-family="Helvetica,sans-Serif" font-size="12.00">Pareto&#45;Optimum</text>
<text text-anchor="middle" x="267.25" y="-14.42" font-family="Helvetica,sans-Serif" font-size="12.00">(Wohlfahrtsmaximum)</text>
</g>
<!-- Marginal&#45;&gt;Pareto -->
<g id="edge10" class="edge">
<title>Marginal&#45;&gt;Pareto</title>
<path fill="none" stroke="black" d="M192.52,-111.99C205.19,-97.55 223.55,-76.62 238.9,-59.12"/>
<polygon fill="black" stroke="black" points="241.2,-61.81 245.16,-51.99 235.94,-57.2 241.2,-61.81"/>
<text text-anchor="middle" x="239.57" y="-76.84" font-family="Times New Roman,serif" font-size="14.00">ZIEL</text>
</g>
<!-- Allok&#45;&gt;Dyn -->
<!-- Dyn&#45;&gt;Pareto -->
<g id="edge9" class="edge">
<title>Dyn&#45;&gt;Pareto</title>
<path fill="none" stroke="black" d="M343.64,-111.99C330.69,-97.55 311.92,-76.62 296.23,-59.12"/>
<polygon fill="black" stroke="black" points="299.1,-57.09 289.82,-51.98 293.89,-61.76 299.1,-57.09"/>
<text text-anchor="middle" x="336.12" y="-76.84" font-family="Times New Roman,serif" font-size="14.00">ZIEL</text>
</g>
</g>
</svg>
