<?xml version="1.0" encoding="UTF-8" standalone="no"?>
<!DOCTYPE svg PUBLIC "-//W3C//DTD SVG 1.1//EN"
 "http://www.w3.org/Graphics/SVG/1.1/DTD/svg11.dtd">
<!-- Generated by graphviz version 12.2.1 (20241206.2353)
 -->
<!-- Title: NachhaltigkeitsSystem Pages: 1 -->
<svg width="506pt" height="469pt"
 viewBox="0.00 0.00 505.97 468.86" xmlns="http://www.w3.org/2000/svg" xmlns:xlink="http://www.w3.org/1999/xlink">
<g id="graph0" class="graph" transform="scale(1 1) rotate(0) translate(4 464.86)">
<title>NachhaltigkeitsSystem</title>
<polygon fill="white" stroke="none" points="-4,4 -4,-464.86 501.97,-464.86 501.97,4 -4,4"/>
<g id="clust1" class="cluster">
<title>cluster_resources</title>
<polygon fill="none" stroke="blue" points="8,-376.36 8,-452.86 489,-452.86 489,-376.36 8,-376.36"/>
<text text-anchor="middle" x="248.5" y="-435.56" font-family="Times New Roman,serif" font-size="14.00">Knappe Ressourcen</text>
</g>
<!-- Limits -->
<g id="node1" class="node">
<title>Limits</title>
<path fill="mistyrose" stroke="red" d="M235.25,-39.5C235.25,-39.5 70.75,-39.5 70.75,-39.5 64.75,-39.5 58.75,-33.5 58.75,-27.5 58.75,-27.5 58.75,-12 58.75,-12 58.75,-6 64.75,0 70.75,0 70.75,0 235.25,0 235.25,0 241.25,0 247.25,-6 247.25,-12 247.25,-12 247.25,-27.5 247.25,-27.5 247.25,-33.5 241.25,-39.5 235.25,-39.5"/>
<text text-anchor="middle" x="153" y="-22.2" font-family="Arial" font-size="14.00">Planetare Grenzen</text>
<text text-anchor="middle" x="153" y="-6.45" font-family="Arial" font-size="14.00">(Belastungsgrenze der Erde)</text>
</g>
<!-- Mat -->
<g id="node2" class="node">
<title>Mat</title>
<path fill="lightgrey" stroke="black" d="M140.38,-420.36C140.38,-420.36 27.62,-420.36 27.62,-420.36 21.62,-420.36 15.62,-414.36 15.62,-408.36 15.62,-408.36 15.62,-396.36 15.62,-396.36 15.62,-390.36 21.62,-384.36 27.62,-384.36 27.62,-384.36 140.38,-384.36 140.38,-384.36 146.38,-384.36 152.38,-390.36 152.38,-396.36 152.38,-396.36 152.38,-408.36 152.38,-408.36 152.38,-414.36 146.38,-420.36 140.38,-420.36"/>
<text text-anchor="middle" x="84" y="-396.94" font-family="Arial" font-size="14.00">Materielle Rohstoffe</text>
</g>
<!-- Limits&#45;&gt;Mat -->
<g id="edge1" class="edge">
<title>Limits&#45;&gt;Mat</title>
<path fill="none" stroke="black" d="M106.17,-39.97C78.57,-54.73 49,-78.16 49,-110.75 49,-313.11 49,-313.11 49,-313.11 49,-334.68 58.14,-357.25 67.08,-374.17"/>
<polygon fill="black" stroke="black" points="63.86,-375.58 71.8,-382.59 69.97,-372.16 63.86,-375.58"/>
<text text-anchor="middle" x="110.5" y="-206.88" font-family="Times New Roman,serif" font-size="14.00">definiert Verfügbarkeit</text>
</g>
<!-- Eff -->
<g id="node5" class="node">
<title>Eff</title>
<path fill="honeydew" stroke="green" stroke-width="2" d="M370.12,-331.86C370.12,-331.86 207.88,-331.86 207.88,-331.86 201.88,-331.86 195.88,-325.86 195.88,-319.86 195.88,-319.86 195.88,-304.36 195.88,-304.36 195.88,-298.36 201.88,-292.36 207.88,-292.36 207.88,-292.36 370.12,-292.36 370.12,-292.36 376.12,-292.36 382.12,-298.36 382.12,-304.36 382.12,-304.36 382.12,-319.86 382.12,-319.86 382.12,-325.86 376.12,-331.86 370.12,-331.86"/>
<text text-anchor="middle" x="289" y="-314.56" font-family="Arial" font-size="14.00">Effizienter Umgang</text>
<text text-anchor="middle" x="289" y="-298.81" font-family="Arial" font-size="14.00">&amp; Technologische Intelligenz</text>
</g>
<!-- Mat&#45;&gt;Eff -->
<g id="edge2" class="edge">
<title>Mat&#45;&gt;Eff</title>
<path fill="none" stroke="black" d="M124.5,-383.93C155.49,-370.59 198.58,-352.04 232.88,-337.27"/>
<polygon fill="black" stroke="black" points="234.03,-340.59 241.83,-333.42 231.26,-334.16 234.03,-340.59"/>
<text text-anchor="middle" x="222.4" y="-353.06" font-family="Times New Roman,serif" font-size="14.00">erfordert</text>
</g>
<!-- Time -->
<g id="node3" class="node">
<title>Time</title>
<path fill="lightgrey" stroke="black" d="M311.25,-420.36C311.25,-420.36 182.75,-420.36 182.75,-420.36 176.75,-420.36 170.75,-414.36 170.75,-408.36 170.75,-408.36 170.75,-396.36 170.75,-396.36 170.75,-390.36 176.75,-384.36 182.75,-384.36 182.75,-384.36 311.25,-384.36 311.25,-384.36 317.25,-384.36 323.25,-390.36 323.25,-396.36 323.25,-396.36 323.25,-408.36 323.25,-408.36 323.25,-414.36 317.25,-420.36 311.25,-420.36"/>
<text text-anchor="middle" x="247" y="-396.94" font-family="Arial" font-size="14.00">Zeit &amp; Aufmerksamkeit</text>
</g>
<!-- Time&#45;&gt;Eff -->
<g id="edge3" class="edge">
<title>Time&#45;&gt;Eff</title>
<path fill="none" stroke="black" d="M255.3,-383.93C260.84,-372.27 268.28,-356.64 274.76,-343.03"/>
<polygon fill="black" stroke="black" points="277.91,-344.56 279.05,-334.03 271.59,-341.55 277.91,-344.56"/>
</g>
<!-- Info -->
<g id="node4" class="node">
<title>Info</title>
<path fill="lightgrey" stroke="black" d="M468.88,-420.36C468.88,-420.36 353.12,-420.36 353.12,-420.36 347.12,-420.36 341.12,-414.36 341.12,-408.36 341.12,-408.36 341.12,-396.36 341.12,-396.36 341.12,-390.36 347.12,-384.36 353.12,-384.36 353.12,-384.36 468.88,-384.36 468.88,-384.36 474.88,-384.36 480.88,-390.36 480.88,-396.36 480.88,-396.36 480.88,-408.36 480.88,-408.36 480.88,-414.36 474.88,-420.36 468.88,-420.36"/>
<text text-anchor="middle" x="411" y="-396.94" font-family="Arial" font-size="14.00">Valide Informationen</text>
</g>
<!-- Info&#45;&gt;Eff -->
<g id="edge4" class="edge">
<title>Info&#45;&gt;Eff</title>
<path fill="none" stroke="black" d="M386.9,-383.93C369.27,-371.18 345.06,-353.67 325.13,-339.25"/>
<polygon fill="black" stroke="black" points="327.41,-336.57 317.25,-333.55 323.3,-342.24 327.41,-336.57"/>
</g>
<!-- Decouple -->
<g id="node6" class="node">
<title>Decouple</title>
<ellipse fill="darkgreen" stroke="darkgreen" cx="344" cy="-211.93" rx="153.97" ry="27.93"/>
<text text-anchor="middle" x="344" y="-214.38" font-family="Arial" font-size="14.00">Entkopplung</text>
<text text-anchor="middle" x="344" y="-198.63" font-family="Arial" font-size="14.00">(Wohlstand ohne Mehrverbrauch)</text>
</g>
<!-- Eff&#45;&gt;Decouple -->
<g id="edge5" class="edge">
<title>Eff&#45;&gt;Decouple</title>
<path fill="none" stroke="black" d="M299.87,-291.71C306.52,-279.84 315.25,-264.26 323.18,-250.09"/>
<polygon fill="black" stroke="black" points="326.21,-251.85 328.04,-241.41 320.1,-248.43 326.21,-251.85"/>
<text text-anchor="middle" x="347.77" y="-261.06" font-family="Times New Roman,serif" font-size="14.00">ermöglicht</text>
</g>
<!-- West -->
<g id="node7" class="node">
<title>West</title>
<path fill="lightgray" stroke="black" d="M216.5,-131.5C216.5,-131.5 89.5,-131.5 89.5,-131.5 83.5,-131.5 77.5,-125.5 77.5,-119.5 77.5,-119.5 77.5,-104 77.5,-104 77.5,-98 83.5,-92 89.5,-92 89.5,-92 216.5,-92 216.5,-92 222.5,-92 228.5,-98 228.5,-104 228.5,-104 228.5,-119.5 228.5,-119.5 228.5,-125.5 222.5,-131.5 216.5,-131.5"/>
<text text-anchor="middle" x="153" y="-114.2" font-family="Arial" font-size="14.00">Erhalt des Wohlstands</text>
<text text-anchor="middle" x="153" y="-98.45" font-family="Arial" font-size="14.00">(Industrialisierte Welt)</text>
</g>
<!-- Decouple&#45;&gt;West -->
<g id="edge6" class="edge">
<title>Decouple&#45;&gt;West</title>
<path fill="none" stroke="black" d="M293.82,-185.13C264.88,-170.26 228.71,-151.67 200.27,-137.05"/>
<polygon fill="black" stroke="black" points="202.01,-134.01 191.52,-132.55 198.81,-140.24 202.01,-134.01"/>
<text text-anchor="middle" x="272.23" y="-152.7" font-family="Times New Roman,serif" font-size="14.00">sichert</text>
</g>
<!-- South -->
<g id="node8" class="node">
<title>South</title>
<path fill="gold" stroke="black" d="M471.62,-131.5C471.62,-131.5 258.38,-131.5 258.38,-131.5 252.38,-131.5 246.38,-125.5 246.38,-119.5 246.38,-119.5 246.38,-104 246.38,-104 246.38,-98 252.38,-92 258.38,-92 258.38,-92 471.62,-92 471.62,-92 477.62,-92 483.62,-98 483.62,-104 483.62,-104 483.62,-119.5 483.62,-119.5 483.62,-125.5 477.62,-131.5 471.62,-131.5"/>
<text text-anchor="middle" x="365" y="-114.2" font-family="Arial" font-size="14.00">Wirtschaftliches Wachstum</text>
<text text-anchor="middle" x="365" y="-98.45" font-family="Arial" font-size="14.00">(Globaler Süden / Ärmere Regionen)</text>
</g>
<!-- Decouple&#45;&gt;South -->
<g id="edge7" class="edge">
<title>Decouple&#45;&gt;South</title>
<path fill="none" stroke="black" d="M349.85,-183.58C352.54,-170.98 355.75,-155.99 358.52,-143.05"/>
<polygon fill="black" stroke="black" points="361.92,-143.86 360.59,-133.35 355.08,-142.4 361.92,-143.86"/>
<text text-anchor="middle" x="403.5" y="-152.7" font-family="Times New Roman,serif" font-size="14.00">schafft Raum für</text>
</g>
<!-- West&#45;&gt;Limits -->
<g id="edge9" class="edge">
<title>West&#45;&gt;Limits</title>
<path fill="none" stroke="darkgreen" stroke-dasharray="5,2" d="M153,-91.66C153,-79.85 153,-64.42 153,-50.98"/>
<polygon fill="darkgreen" stroke="darkgreen" points="156.5,-51.32 153,-41.32 149.5,-51.32 156.5,-51.32"/>
<text text-anchor="middle" x="217.5" y="-60.7" font-family="Times New Roman,serif" font-size="14.00">darf nicht überschreiten</text>
</g>
<!-- South&#45;&gt;Limits -->
<g id="edge8" class="edge">
<title>South&#45;&gt;Limits</title>
<path fill="none" stroke="darkgreen" stroke-dasharray="5,2" d="M340.97,-91.54C325.91,-80.29 305.68,-66.56 286,-57.5 274.47,-52.19 262.02,-47.51 249.52,-43.42"/>
<polygon fill="darkgreen" stroke="darkgreen" points="250.57,-40.08 239.98,-40.43 248.48,-46.76 250.57,-40.08"/>
<text text-anchor="middle" x="362.92" y="-60.7" font-family="Times New Roman,serif" font-size="14.00">innerhalb bleiben</text>
</g>
</g>
</svg>
