<?xml version="1.0" encoding="UTF-8" standalone="no"?>
<!DOCTYPE svg PUBLIC "-//W3C//DTD SVG 1.1//EN"
 "http://www.w3.org/Graphics/SVG/1.1/DTD/svg11.dtd">
<!-- Generated by graphviz version 12.2.1 (20241206.2353)
 -->
<!-- Title: OekonomischeAllokation Pages: 1 -->
<svg width="864pt" height="473pt"
 viewBox="0.00 0.00 864.00 473.09" xmlns="http://www.w3.org/2000/svg" xmlns:xlink="http://www.w3.org/1999/xlink">
<g id="graph0" class="graph" transform="scale(0.9 0.9) rotate(0) translate(4 521.65)">
<title>OekonomischeAllokation</title>
<polygon fill="white" stroke="none" points="-4,4 -4,-521.65 956,-521.65 956,4 -4,4"/>
<g id="clust1" class="cluster">
<title>cluster_cons</title>
<polygon fill="none" stroke="#1e88e5" stroke-dasharray="5,2" points="619,-286.15 619,-375.15 759,-375.15 759,-286.15 619,-286.15"/>
<text text-anchor="middle" x="689" y="-357.85" font-family="Times New Roman,serif" font-size="14.00">Konsumenten</text>
</g>
<g id="clust2" class="cluster">
<title>cluster_firms</title>
<polygon fill="none" stroke="#388e3c" stroke-dasharray="5,2" points="8,-286.15 8,-375.15 168,-375.15 168,-286.15 8,-286.15"/>
<text text-anchor="middle" x="88" y="-357.85" font-family="Times New Roman,serif" font-size="14.00">Unternehmen</text>
</g>
<g id="clust3" class="cluster">
<title>cluster_state</title>
<polygon fill="none" stroke="#f4511e" stroke-dasharray="5,2" points="786,-286.15 786,-375.15 944,-375.15 944,-286.15 786,-286.15"/>
<text text-anchor="middle" x="865" y="-357.85" font-family="Times New Roman,serif" font-size="14.00">Staat</text>
</g>
<g id="clust4" class="cluster">
<title>cluster_ngo</title>
<polygon fill="none" stroke="#8e24aa" stroke-dasharray="5,2" points="478,-420.65 478,-509.65 631,-509.65 631,-420.65 478,-420.65"/>
<text text-anchor="middle" x="554.5" y="-492.35" font-family="Times New Roman,serif" font-size="14.00">Zivilgesellschaft (NGOs)</text>
</g>
<!-- Scarcity -->
<g id="node1" class="node">
<title>Scarcity</title>
<polygon fill="#eceff1" stroke="black" stroke-width="2" points="579.18,-307.3 579.18,-329.5 470.12,-345.19 315.88,-345.19 206.82,-329.5 206.82,-307.3 315.88,-291.61 470.12,-291.61 579.18,-307.3"/>
<polygon fill="none" stroke="black" stroke-width="2" points="583.18,-303.84 583.18,-332.96 470.4,-349.19 315.6,-349.19 202.82,-332.96 202.82,-303.84 315.6,-287.61 470.4,-287.61 583.18,-303.84"/>
<text text-anchor="middle" x="393" y="-321.45" font-family="Arial" font-size="11.00">DAS KNAPPHEITSPROBLEM</text>
<text text-anchor="middle" x="393" y="-307.95" font-family="Arial" font-size="11.00">(Unbegrenzte Bedürfnisse vs. begrenzte Güter)</text>
</g>
<!-- Market -->
<g id="node2" class="node">
<title>Market</title>
<polygon fill="#fff9c4" stroke="black" stroke-width="2" points="603,-213.11 441.5,-178.11 603,-143.11 764.5,-178.11 603,-213.11"/>
<text text-anchor="middle" x="603" y="-181.16" font-family="Arial" font-size="11.00">MARKTMECHANISMUS</text>
<text text-anchor="middle" x="603" y="-167.66" font-family="Arial" font-size="11.00">(Preise als Knappheitssignale)</text>
</g>
<!-- Scarcity&#45;&gt;Market -->
<g id="edge1" class="edge">
<title>Scarcity&#45;&gt;Market</title>
<path fill="none" stroke="black" d="M414.84,-286.66C426.61,-271.74 442.17,-254.43 459,-242.11 479.82,-226.88 504.89,-214.31 528.24,-204.51"/>
<polygon fill="black" stroke="black" points="529.48,-207.78 537.43,-200.77 526.85,-201.3 529.48,-207.78"/>
<text text-anchor="middle" x="520.5" y="-245.31" font-family="Times New Roman,serif" font-size="14.00">erfordert Koordination</text>
</g>
<!-- Efficiency -->
<g id="node7" class="node">
<title>Efficiency</title>
<polygon fill="#d1c4e9" stroke="black" stroke-width="2" points="612.95,-0.09 619.53,-0.28 626.05,-0.56 632.47,-0.94 638.78,-1.4 644.93,-1.96 650.92,-2.6 656.71,-3.33 662.29,-4.15 667.63,-5.05 672.71,-6.02 677.52,-7.08 682.05,-8.21 686.27,-9.41 690.17,-10.68 693.74,-12.02 696.98,-13.41 699.88,-14.87 702.43,-16.38 704.63,-17.93 706.48,-19.53 707.97,-21.17 709.12,-22.85 709.91,-24.56 710.37,-26.3 710.49,-28.05 710.29,-29.83 709.77,-31.61 708.94,-33.41 707.82,-35.2 706.42,-37 704.75,-38.79 702.82,-40.56 700.64,-42.32 698.24,-44.05 695.63,-45.76 692.82,-47.44 689.82,-49.08 686.66,-50.68 683.34,-52.24 679.88,-53.74 676.29,-55.2 672.58,-56.59 668.77,-57.93 664.87,-59.2 660.88,-60.4 656.83,-61.53 652.71,-62.59 648.54,-63.57 644.32,-64.47 640.06,-65.28 635.77,-66.01 631.45,-66.66 627.11,-67.21 622.75,-67.68 618.37,-68.05 613.99,-68.33 609.6,-68.52 605.2,-68.61 600.8,-68.61 596.4,-68.52 592.01,-68.33 587.63,-68.05 583.25,-67.68 578.89,-67.21 574.55,-66.66 570.23,-66.01 565.94,-65.28 561.68,-64.47 557.46,-63.57 553.29,-62.59 549.17,-61.53 545.12,-60.4 541.13,-59.2 537.23,-57.93 533.42,-56.59 529.71,-55.2 526.12,-53.74 522.66,-52.24 519.34,-50.68 516.18,-49.08 513.18,-47.44 510.37,-45.76 507.76,-44.05 505.36,-42.32 503.18,-40.56 501.25,-38.79 499.58,-37 498.18,-35.2 497.06,-33.41 496.23,-31.61 495.71,-29.83 495.51,-28.05 495.63,-26.3 496.09,-24.56 496.88,-22.85 498.03,-21.17 499.52,-19.53 501.37,-17.93 503.57,-16.38 506.12,-14.87 509.02,-13.41 512.26,-12.02 515.83,-10.68 519.73,-9.41 523.95,-8.21 528.48,-7.08 533.29,-6.02 538.37,-5.05 543.71,-4.15 549.29,-3.33 555.08,-2.6 561.07,-1.96 567.22,-1.4 573.53,-0.94 579.95,-0.56 586.47,-0.28 593.05,-0.09 599.68,0 606.32,0 612.95,-0.09"/>
<text text-anchor="middle" x="603" y="-44.11" font-family="Arial" font-size="11.00">PARETO&#45;EFFIZIENZ</text>
<text text-anchor="middle" x="603" y="-30.61" font-family="Arial" font-size="11.00">(Maximale Rentensumme,</text>
<text text-anchor="middle" x="603" y="-17.11" font-family="Arial" font-size="11.00">minimale Verschwendung)</text>
</g>
<!-- Market&#45;&gt;Efficiency -->
<g id="edge7" class="edge">
<title>Market&#45;&gt;Efficiency</title>
<path fill="none" stroke="black" d="M603,-142.42C603,-123.78 603,-100.57 603,-80.53"/>
<polygon fill="black" stroke="black" points="606.5,-80.66 603,-70.66 599.5,-80.66 606.5,-80.66"/>
<text text-anchor="middle" x="648.38" y="-100.81" font-family="Times New Roman,serif" font-size="14.00">idealer Outcome</text>
</g>
<!-- Failure -->
<g id="node8" class="node">
<title>Failure</title>
<polygon fill="#ffcdd2" stroke="black" points="877.5,-58.56 786.5,-58.56 786.5,-10.06 877.5,-10.06 877.5,-58.56"/>
<text text-anchor="middle" x="832" y="-44.11" font-family="Arial" font-size="11.00" fill="#b71c1c">RISIKEN:</text>
<text text-anchor="middle" x="832" y="-30.61" font-family="Arial" font-size="11.00" fill="#b71c1c">Marktversagen</text>
<text text-anchor="middle" x="832" y="-17.11" font-family="Arial" font-size="11.00" fill="#b71c1c">Staatsversagen</text>
</g>
<!-- Market&#45;&gt;Failure -->
<g id="edge8" class="edge">
<title>Market&#45;&gt;Failure</title>
<path fill="none" stroke="black" stroke-dasharray="1,5" d="M644.74,-151.27C684.15,-126.86 743.2,-90.29 784.42,-64.77"/>
<polygon fill="black" stroke="black" points="786.03,-67.89 792.69,-59.65 782.34,-61.94 786.03,-67.89"/>
</g>
<!-- Cons -->
<g id="node3" class="node">
<title>Cons</title>
<polygon fill="#bbdefb" stroke="black" points="751.38,-342.65 626.62,-342.65 626.62,-294.15 751.38,-294.15 751.38,-342.65"/>
<text text-anchor="middle" x="689" y="-328.2" font-family="Arial" font-size="11.00">Nutzenmaximierung</text>
<text text-anchor="middle" x="689" y="-314.7" font-family="Arial" font-size="11.00">Präferenzsignale</text>
<text text-anchor="middle" x="689" y="-301.2" font-family="Arial" font-size="11.00">Soziale Verantwortung</text>
</g>
<!-- Cons&#45;&gt;Market -->
<g id="edge2" class="edge">
<title>Cons&#45;&gt;Market</title>
<path fill="none" stroke="black" d="M633.42,-293.79C619.26,-284.93 605.78,-273.34 597.75,-258.61 591.93,-247.94 590.72,-235.22 591.65,-223.12"/>
<polygon fill="black" stroke="black" points="595.11,-223.66 592.92,-213.3 588.17,-222.77 595.11,-223.66"/>
<text text-anchor="middle" x="625.88" y="-245.31" font-family="Times New Roman,serif" font-size="14.00">Nachfrage</text>
</g>
<!-- Firms -->
<g id="node4" class="node">
<title>Firms</title>
<polygon fill="#c8e6c9" stroke="black" points="159.75,-342.65 16.25,-342.65 16.25,-294.15 159.75,-294.15 159.75,-342.65"/>
<text text-anchor="middle" x="88" y="-328.2" font-family="Arial" font-size="11.00">Gewinnmaximierung</text>
<text text-anchor="middle" x="88" y="-314.7" font-family="Arial" font-size="11.00">Kosteneffizienz</text>
<text text-anchor="middle" x="88" y="-301.2" font-family="Arial" font-size="11.00">Innovation &amp; Arbeitsteilung</text>
</g>
<!-- Firms&#45;&gt;Market -->
<g id="edge3" class="edge">
<title>Firms&#45;&gt;Market</title>
<path fill="none" stroke="black" d="M156.63,-293.69C164.82,-291.05 173.08,-288.48 181,-286.15 294.92,-252.62 427.96,-219.93 513.74,-199.68"/>
<polygon fill="black" stroke="black" points="514.34,-203.13 523.27,-197.43 512.73,-196.32 514.34,-203.13"/>
<text text-anchor="middle" x="354.28" y="-245.31" font-family="Times New Roman,serif" font-size="14.00">Angebot</text>
</g>
<!-- State -->
<g id="node5" class="node">
<title>State</title>
<polygon fill="#ffccbc" stroke="black" points="935.62,-342.65 794.38,-342.65 794.38,-294.15 935.62,-294.15 935.62,-342.65"/>
<text text-anchor="middle" x="865" y="-328.2" font-family="Arial" font-size="11.00">Ordnungsrahmen</text>
<text text-anchor="middle" x="865" y="-314.7" font-family="Arial" font-size="11.00">Marktversagen korrigieren</text>
<text text-anchor="middle" x="865" y="-301.2" font-family="Arial" font-size="11.00">Öffentliche Güter</text>
</g>
<!-- State&#45;&gt;Market -->
<g id="edge4" class="edge">
<title>State&#45;&gt;Market</title>
<path fill="none" stroke="black" d="M794.26,-294.51C758.1,-282.29 718.3,-267.91 701.75,-258.61 680.15,-246.48 658.45,-229.64 640.91,-214.59"/>
<polygon fill="black" stroke="black" points="643.63,-212.31 633.8,-208.36 639.02,-217.58 643.63,-212.31"/>
<text text-anchor="middle" x="767.38" y="-245.31" font-family="Times New Roman,serif" font-size="14.00">Regulierung / Korrektur</text>
</g>
<!-- State&#45;&gt;Failure -->
<g id="edge9" class="edge">
<title>State&#45;&gt;Failure</title>
<path fill="none" stroke="black" stroke-dasharray="1,5" d="M862.24,-293.83C856.43,-244.16 842.9,-128.48 836.08,-70.19"/>
<polygon fill="black" stroke="black" points="839.59,-70.03 834.95,-60.51 832.63,-70.85 839.59,-70.03"/>
</g>
<!-- NGO -->
<g id="node6" class="node">
<title>NGO</title>
<polygon fill="#e1bee7" stroke="black" points="616,-477.15 492,-477.15 492,-428.65 616,-428.65 616,-477.15"/>
<text text-anchor="middle" x="554" y="-462.7" font-family="Arial" font-size="11.00">Überwachung &amp; Moral</text>
<text text-anchor="middle" x="554" y="-449.2" font-family="Arial" font-size="11.00">Öffentliche Interessen</text>
<text text-anchor="middle" x="554" y="-435.7" font-family="Arial" font-size="11.00">Nischen&#45;Bereitstellung</text>
</g>
<!-- NGO&#45;&gt;Firms -->
<g id="edge5" class="edge">
<title>NGO&#45;&gt;Firms</title>
<path fill="none" stroke="black" d="M491.79,-445.59C416.23,-436.47 285.88,-416.01 181,-375.15 163.73,-368.42 145.99,-358.63 130.7,-349.12"/>
<polygon fill="black" stroke="black" points="132.62,-346.19 122.31,-343.76 128.85,-352.09 132.62,-346.19"/>
<text text-anchor="middle" x="301.62" y="-386.35" font-family="Times New Roman,serif" font-size="14.00">Moralischer Druck</text>
</g>
<!-- NGO&#45;&gt;State -->
<g id="edge6" class="edge">
<title>NGO&#45;&gt;State</title>
<path fill="none" stroke="black" d="M616.36,-432.99C659.94,-418.98 719.03,-398.34 769,-375.15 785.49,-367.5 802.87,-357.91 818.23,-348.86"/>
<polygon fill="black" stroke="black" points="819.92,-351.93 826.71,-343.79 816.33,-345.92 819.92,-351.93"/>
<text text-anchor="middle" x="775.27" y="-386.35" font-family="Times New Roman,serif" font-size="14.00">Advokatur</text>
</g>
</g>
</svg>
