<svg xmlns="http://www.w3.org/2000/svg" xmlns:xlink="http://www.w3.org/1999/xlink" display="block" class="plt-container" width="600.0" height="400.0">
  <style type="text/css">
  .plt-container {
   font-family: Lucida Grande, sans-serif;
   user-select: none;
   -webkit-user-select: none;
   -moz-user-select: none;
   -ms-user-select: none;
}
text {
   text-rendering: optimizeLegibility;
}
#prmaDOA .plot-title {
fill: #474747;
font-weight: normal;
   font-style: normal;font-family: Lucida Grande, sans-serif;
font-size: 16.0px;

}
#prmaDOA .plot-subtitle {
fill: #474747;
font-weight: normal;
   font-style: normal;font-family: Lucida Grande, sans-serif;
font-size: 15.0px;

}
#prmaDOA .plot-caption {
fill: #474747;
font-weight: normal;
   font-style: normal;font-family: Lucida Grande, sans-serif;
font-size: 13.0px;

}
#prmaDOA .hyperlink-element {
fill: #118ed8;
font-weight: normal;
   font-style: normal;
}
#prmaDOA .legend-title {
fill: #474747;
font-weight: normal;
   font-style: normal;font-family: Lucida Grande, sans-serif;
font-size: 15.0px;

}
#prmaDOA .legend-item {
fill: #474747;
font-weight: normal;
   font-style: normal;font-family: Lucida Grande, sans-serif;
font-size: 13.0px;

}
#prmaDOA .axis-title-x {
fill: #474747;
font-weight: normal;
   font-style: normal;font-family: Lucida Grande, sans-serif;
font-size: 15.0px;

}
#prmaDOA .axis-text-x {
fill: #474747;
font-weight: normal;
   font-style: normal;font-family: Lucida Grande, sans-serif;
font-size: 13.0px;

}
#d89PM45 .axis-tooltip-text-x {
fill: #ffffff;
font-weight: normal;
   font-style: normal;font-family: Lucida Grande, sans-serif;
font-size: 13.0px;

}
#prmaDOA .axis-title-y {
fill: #474747;
font-weight: normal;
   font-style: normal;font-family: Lucida Grande, sans-serif;
font-size: 15.0px;

}
#prmaDOA .axis-text-y {
fill: #474747;
font-weight: normal;
   font-style: normal;font-family: Lucida Grande, sans-serif;
font-size: 13.0px;

}
#d89PM45 .axis-tooltip-text-y {
fill: #ffffff;
font-weight: normal;
   font-style: normal;font-family: Lucida Grande, sans-serif;
font-size: 13.0px;

}
#prmaDOA .facet-strip-text-x {
fill: #474747;
font-weight: normal;
   font-style: normal;font-family: Lucida Grande, sans-serif;
font-size: 13.0px;

}
#prmaDOA .facet-strip-text-y {
fill: #474747;
font-weight: normal;
   font-style: normal;font-family: Lucida Grande, sans-serif;
font-size: 13.0px;

}
#d89PM45 .tooltip-text {
fill: #474747;
font-weight: normal;
   font-style: normal;font-family: Lucida Grande, sans-serif;
font-size: 13.0px;

}
#d89PM45 .tooltip-title {
fill: #474747;
font-weight: bold;
   font-style: normal;font-family: Lucida Grande, sans-serif;
font-size: 13.0px;

}
#d89PM45 .tooltip-label {
fill: #474747;
font-weight: bold;
   font-style: normal;font-family: Lucida Grande, sans-serif;
font-size: 13.0px;

}

  </style>
  <g id="prmaDOA">
    <path fill-rule="evenodd" fill="rgb(255,255,255)" fill-opacity="1.0" d="M0.0 0.0 L0.0 400.0 L600.0 400.0 L600.0 0.0 Z">
    </path>
    <g transform="translate(29.5 26.5 ) ">
      <g>
        <rect x="39.01530667574961" y="0.0" height="321.0" width="524.9846933242504" fill="rgb(255,255,255)" fill-opacity="1.0">
        </rect>
        <g transform="translate(39.01530667574961 0.0 ) ">
          <g>
            <line x1="62.47611310669588" y1="0.0" x2="62.47611310669588" y2="321.0" stroke="rgb(233,233,233)" stroke-opacity="1.0" stroke-width="0.5" fill="none">
            </line>
            <line x1="139.70245810879214" y1="0.0" x2="139.70245810879214" y2="321.0" stroke="rgb(233,233,233)" stroke-opacity="1.0" stroke-width="0.5" fill="none">
            </line>
            <line x1="216.9288031108884" y1="0.0" x2="216.9288031108884" y2="321.0" stroke="rgb(233,233,233)" stroke-opacity="1.0" stroke-width="0.5" fill="none">
            </line>
            <line x1="294.15514811298465" y1="0.0" x2="294.15514811298465" y2="321.0" stroke="rgb(233,233,233)" stroke-opacity="1.0" stroke-width="0.5" fill="none">
            </line>
            <line x1="371.38149311508096" y1="0.0" x2="371.38149311508096" y2="321.0" stroke="rgb(233,233,233)" stroke-opacity="1.0" stroke-width="0.5" fill="none">
            </line>
            <line x1="448.6078381171772" y1="0.0" x2="448.6078381171772" y2="321.0" stroke="rgb(233,233,233)" stroke-opacity="1.0" stroke-width="0.5" fill="none">
            </line>
            <line x1="23.862940605647747" y1="0.0" x2="23.862940605647747" y2="321.0" stroke="rgb(233,233,233)" stroke-opacity="1.0" stroke-width="1.0" fill="none">
            </line>
            <line x1="101.08928560774402" y1="0.0" x2="101.08928560774402" y2="321.0" stroke="rgb(233,233,233)" stroke-opacity="1.0" stroke-width="1.0" fill="none">
            </line>
            <line x1="178.31563060984027" y1="0.0" x2="178.31563060984027" y2="321.0" stroke="rgb(233,233,233)" stroke-opacity="1.0" stroke-width="1.0" fill="none">
            </line>
            <line x1="255.54197561193655" y1="0.0" x2="255.54197561193655" y2="321.0" stroke="rgb(233,233,233)" stroke-opacity="1.0" stroke-width="1.0" fill="none">
            </line>
            <line x1="332.7683206140328" y1="0.0" x2="332.7683206140328" y2="321.0" stroke="rgb(233,233,233)" stroke-opacity="1.0" stroke-width="1.0" fill="none">
            </line>
            <line x1="409.99466561612905" y1="0.0" x2="409.99466561612905" y2="321.0" stroke="rgb(233,233,233)" stroke-opacity="1.0" stroke-width="1.0" fill="none">
            </line>
            <line x1="487.22101061822536" y1="0.0" x2="487.22101061822536" y2="321.0" stroke="rgb(233,233,233)" stroke-opacity="1.0" stroke-width="1.0" fill="none">
            </line>
          </g>
        </g>
        <g transform="translate(39.01530667574961 0.0 ) ">
          <g>
            <line x1="0.0" y1="284.8985426426908" x2="524.9846933242504" y2="284.8985426426908" stroke="rgb(233,233,233)" stroke-opacity="1.0" stroke-width="0.5" fill="none">
            </line>
            <line x1="0.0" y1="244.49714040065194" x2="524.9846933242504" y2="244.49714040065194" stroke="rgb(233,233,233)" stroke-opacity="1.0" stroke-width="0.5" fill="none">
            </line>
            <line x1="0.0" y1="204.0957381586131" x2="524.9846933242504" y2="204.0957381586131" stroke="rgb(233,233,233)" stroke-opacity="1.0" stroke-width="0.5" fill="none">
            </line>
            <line x1="0.0" y1="163.69433591657426" x2="524.9846933242504" y2="163.69433591657426" stroke="rgb(233,233,233)" stroke-opacity="1.0" stroke-width="0.5" fill="none">
            </line>
            <line x1="0.0" y1="123.29293367453542" x2="524.9846933242504" y2="123.29293367453542" stroke="rgb(233,233,233)" stroke-opacity="1.0" stroke-width="0.5" fill="none">
            </line>
            <line x1="0.0" y1="82.89153143249658" x2="524.9846933242504" y2="82.89153143249658" stroke="rgb(233,233,233)" stroke-opacity="1.0" stroke-width="0.5" fill="none">
            </line>
            <line x1="0.0" y1="42.490129190457736" x2="524.9846933242504" y2="42.490129190457736" stroke="rgb(233,233,233)" stroke-opacity="1.0" stroke-width="0.5" fill="none">
            </line>
            <line x1="0.0" y1="305.0992437637102" x2="524.9846933242504" y2="305.0992437637102" stroke="rgb(233,233,233)" stroke-opacity="1.0" stroke-width="1.0" fill="none">
            </line>
            <line x1="0.0" y1="264.69784152167136" x2="524.9846933242504" y2="264.69784152167136" stroke="rgb(233,233,233)" stroke-opacity="1.0" stroke-width="1.0" fill="none">
            </line>
            <line x1="0.0" y1="224.29643927963252" x2="524.9846933242504" y2="224.29643927963252" stroke="rgb(233,233,233)" stroke-opacity="1.0" stroke-width="1.0" fill="none">
            </line>
            <line x1="0.0" y1="183.89503703759368" x2="524.9846933242504" y2="183.89503703759368" stroke="rgb(233,233,233)" stroke-opacity="1.0" stroke-width="1.0" fill="none">
            </line>
            <line x1="0.0" y1="143.49363479555484" x2="524.9846933242504" y2="143.49363479555484" stroke="rgb(233,233,233)" stroke-opacity="1.0" stroke-width="1.0" fill="none">
            </line>
            <line x1="0.0" y1="103.092232553516" x2="524.9846933242504" y2="103.092232553516" stroke="rgb(233,233,233)" stroke-opacity="1.0" stroke-width="1.0" fill="none">
            </line>
            <line x1="0.0" y1="62.69083031147716" x2="524.9846933242504" y2="62.69083031147716" stroke="rgb(233,233,233)" stroke-opacity="1.0" stroke-width="1.0" fill="none">
            </line>
            <line x1="0.0" y1="22.289428069438316" x2="524.9846933242504" y2="22.289428069438316" stroke="rgb(233,233,233)" stroke-opacity="1.0" stroke-width="1.0" fill="none">
            </line>
          </g>
        </g>
      </g>
      <g clip-path="url(#cLxRg3E)" clip-bounds-jfx="[rect (39.01530667574961, 0.0), (524.9846933242504, 321.0)]">
        <g transform="translate(39.01530667574961 0.0 ) ">
          <g>
            <g>
              <g>
                <path d="M23.862940605647747 62.69083031147716 L23.862940605647747 62.69083031147716 L25.407467505689674 54.61459000329359 L26.951994405731597 51.27974867445755 L28.496521305773523 48.73173529744731 L30.04104820581545 46.59491165824888 L31.585575105857373 44.723777457180006 L33.130102005899296 43.04371128236221 L34.674628905941226 41.510384592318715 L36.21915580598315 40.09491488999336 L37.76368270602507 38.777240324414365 L39.308209606067 37.542753984002324 L40.852736506108926 36.380428830392574 L42.39726340615085 35.28169795166714 L43.94179030619278 34.23974853250425 L45.4863172062347 33.24905676843113 L47.030844106276625 32.305070252554344 L48.57537100631855 31.403984415242274 L50.11989790636048 30.542581062873616 L51.6644248064024 29.718109150369955 L53.208951706444324 28.928195022337782 L54.753478606486254 28.170773681354206 L56.298005506528185 27.44403535905076 L57.8425324065701 26.74638342098691 L59.38705930661203 26.076400798399604 L60.93158620665395 25.43282292624602 L62.47611310669588 24.81451570956574 L64.0206400067378 24.22045742130551 L65.56516690677974 23.64972370677873 L67.10969380682167 23.101475066964134 L68.65422070686358 22.574946337490104 L70.1987476069055 22.06943778765173 L71.74327450694743 21.58430754462013 L73.28780140698936 21.118965109396257 L74.83232830703129 20.67286577816037 L76.3768552070732 20.245505819132127 L77.92138210711514 19.83641828352662 L79.46590900715705 19.44516935159878 L81.01043590719898 19.071355132536212 L82.55496280724091 18.714598851146285 L84.09948970728284 18.374548365687033 L85.64401660732476 18.05087397041293 L87.18854350736669 17.743266443909334 L88.73307040740862 17.45143531042727 L90.27759730745053 17.175107286476795 L91.82212420749246 16.914024889109378 L93.3666511075344 16.66794518578326 L94.91117800757632 16.436638668595684 L96.45570490761824 16.219888238086213 L98.00023180766016 16.01748828385216 L99.54475870770209 15.829243850936308 L101.08928560774402 15.654969882404764 L102.63381250778595 15.494490529773259 L104.17833940782788 15.347638523997723 L105.7228663078698 15.21425460065246 L107.26739320791172 15.094186973696821 L108.81192010795365 14.987290852903548 L110.35644700799558 14.893428000600572 L111.9009739080375 14.81246632388163 L113.44550080807942 14.744279498877184 L114.99002770812135 14.688746624057693 L116.53455460816326 14.645751899873758 L118.07908150820519 14.615184332328155 L119.62360840824712 14.59693745833043 L121.16813530828905 14.59090909090908 L122.71266220833097 14.597001082554115 L124.2571891083729 14.615119105137758 L125.80171600841483 14.64517244501549 L127.34624290845676 14.687073812047103 L128.89076980849867 14.740739161398999 L130.4352967085406 14.80608752709751 L131.97982360858254 14.883040866400044 L133.52435050862442 14.971523914136462 L135.06887740866637 15.07146404625157 L136.61340430870828 15.18279115184766 L138.15793120875023 15.305437513088954 L139.70245810879214 15.439337692385585 L141.24698500883406 15.584428426324827 L142.791511908876 15.740648525862966 L144.33603880891792 15.907938782331833 L145.88056570895986 16.086241878851368 L147.42509260900178 16.275502306773014 L148.9696195090437 16.47566628680893 L150.51414640908564 16.68668169453003 L152.05867330912756 16.90849798994043 L153.60320020916947 17.141066150859125 L155.1477271092114 17.384338609860286 L156.6922540092533 17.63826919454248 L158.23678090929525 17.902813070914647 L159.78130780933716 18.177926689702183 L161.32583470937908 18.463567735391365 L162.87036160942102 18.759695077842963 L164.41488850946294 19.06626872631886 L165.95941540950489 19.38324978577601 L167.5039423095468 19.710600415292483 L169.04846920958872 20.048283788500036 L170.59299610963066 20.396264055905938 L172.13752300967255 20.754506308995005 L173.6820499097145 21.12297654601013 L175.2265768097564 21.50164163931631 L176.77110370979835 21.890469304259668 L178.31563060984027 22.289428069438316 L179.86015750988219 22.698487248307977 L181.40468440992413 23.117616912049563 L182.94921130996605 23.546787863630982 L184.493738210008 23.98597161299943 L186.0382651100499 24.43514035334463 L187.58279201009182 24.894266938377037 L189.12731891013377 25.363324860568333 L190.67184581017568 25.842288230305144 L192.2163727102176 26.331131755909226 L193.76089961025954 26.829830724480686 L195.30542651030146 27.33836098352331 L196.8499534103434 27.856698923312955 L198.39448031038532 28.384821459973068 L199.93900721042723 28.922706019222453 L201.48353411046918 29.47033052076344 L203.02806101051107 30.027673363279575 L204.57258791055298 30.594713410014037 L206.11711481059493 31.171429974901606 L207.66164171063684 31.75780280922843 L209.20616861067876 32.35381208879522 L210.7506955107207 32.95943840156076 L212.29522241076262 33.574662735744205 L213.83974931080454 34.19946646836512 L215.38427621084648 34.833831354202154 L216.9288031108884 35.47773951515158 L218.47333001093034 36.13117342996808 L220.01785691097226 36.79411592437128 L221.56238381101417 37.46655016150224 L223.10691071105612 38.148459632714705 L224.65143761109803 38.83982814868699 L226.19596451113998 39.54063983084116 L227.7404914111819 40.25087910305601 L229.2850183112238 40.970530683662474 L230.82954521126575 41.699579577709116 L232.37407211130767 42.43801106948689 L233.91859901134958 43.18581071530278 L235.46312591139153 43.94296433649193 L237.00765281143345 44.70945801265901 L238.5521797114754 45.48527807513958 L240.0967066115173 46.27041110067271 L241.6412335115592 47.0648439052766 L243.1857604116011 47.868563538319535 L244.73028731164305 48.681557276777994 L246.27481421168497 49.50381261967568 L247.8193411117269 50.335317282695456 L249.36386801176883 51.176059192958704 L250.90839491181075 52.02602648396508 L252.4529218118527 52.8852074906869 L253.9974487118946 53.7535907448125 L255.54197561193655 54.63116497013312 L257.0865025119785 55.517919078067706 L258.6310294120204 56.41384216332112 L260.1755563120623 57.31892349967048 L261.72008321210427 58.2331525358754 L263.26461011214616 59.1565188917074 L264.8091370121881 60.089012354094436 L266.35366391223005 61.03062287337668 L267.898190812272 61.981340559669086 L269.4427177123139 62.94115567932771 L270.9872446123558 63.910058651515726 L272.53177151239777 64.88804004486585 L274.07629841243966 65.87509057423614 L275.6208253124816 66.87120109755534 L277.16535221252354 67.87636261275574 L278.70987911256543 68.89056625478959 L280.2544060126074 69.91380329272694 L281.79893291264926 70.94606512693224 L283.3434598126912 71.9873432863165 L284.8879867127331 73.03762942566328 L286.43251361277504 74.09691532302568 L287.977040512817 75.16519287719197 L289.5215674128589 76.24245410521817 L291.0660943129008 77.32869114002472 L292.61062121294276 78.42389622805575 L294.15514811298465 79.52806172699894 L295.6996750130266 80.64118010356367 L297.24420191306854 81.76324393131594 L298.7887288131104 82.89424588856849 L300.33325571315237 84.03417875632388 L301.8777826131943 85.18303541626949 L303.42230951323626 86.3408088488223 L304.96683641327814 87.50749213122249 L306.5113633133201 88.68307843567385 L308.05589021336203 89.86756102753009 L309.6004171134039 91.06093326352524 L311.14494401344587 92.26318859004726 L312.6894709134878 93.47432054145312 L314.2339978135297 94.6943227384246 L315.77852471357164 95.92318888636316 L317.3230516136136 97.16091277382326 L318.8675785136555 98.40748827098245 L320.41210541369736 99.66290932814766 L321.9566323137393 100.92716997429636 L323.50115921378125 102.20026431565174 L325.0456861138232 103.48218653429083 L326.5902130138651 104.7729308867848 L328.134739913907 106.07249170287037 L329.67926681394897 107.38086338415144 L331.22379371399086 108.69804040283051 L332.7683206140328 110.02401730046832 L334.31284751407475 111.3587886867717 L335.85737441411663 112.70234923840832 L337.40190131415864 114.05469369784805 L338.9464282142005 115.41581687222958 L340.4909551142424 116.78571363225254 L342.03548201428436 118.16437891109334 L343.58000891432624 119.55180770334513 L345.12453581436824 120.94799506398056 L346.66906271441013 122.35293610733677 L348.2135896144521 123.76662600612295 L349.75811651449396 125.1890599904479 L351.3026434145359 126.62023334686972 L352.8471703145778 128.0601414174643 L354.3916972146198 129.50877959891477 L355.9362241146617 130.96614334161887 L357.4807510147036 132.43222814881585 L359.0252779147455 133.90702957573103 L360.56980481478746 135.39054322873847 L362.11433171482935 136.88276476454047 L363.65885861487135 138.38368988936446 L365.20338551491324 139.8933143581756 L366.7479124149552 141.4116339739061 L368.29243931499707 142.93864458669964 L369.83696621503907 144.47434209317134 L371.38149311508096 146.01872243568226 L372.9260200151229 147.57178160162886 L374.4705469151648 149.13351562274588 L376.01507381520673 150.70392057442402 L377.5596007152486 152.28299257503994 L379.1041276152906 153.8707277853004 L380.6486545153325 155.46712240759862 L382.1931814153744 157.07217268538332 L383.73770831541634 158.68587490254015 L385.28223521545823 160.3082253827846 L386.82676211550023 161.93922048906745 L388.3712890155421 163.57885662299032 L389.91581591558406 165.2271302242337 L391.46034281562595 166.88403776999468 L393.0048697156679 168.54957577443625 L394.5493966157098 170.22374078814613 L396.0939235157518 171.9065293976065 L397.63845041579367 173.59793822467282 L399.1829773158356 175.29796392606318 L400.7275042158775 177.0066031928563 L402.27203111591945 178.7238527499996 L403.81655801596133 180.44970935582515 L405.36108491600334 182.18416980157616 L406.9056118160452 183.92723091093995 L408.45013871608717 185.67888953959158 L409.99466561612905 187.4391425747438 L411.53919251617106 189.20798693470678 L413.08371941621294 190.98541956845403 L414.6282463162549 192.77143745519777 L416.1727732162968 194.5660376039704 L417.7173001163387 196.36921705321438 L419.2618270163806 198.1809728703786 L420.8063539164225 200.00130215152268 L422.3508808164645 201.8302020209273 L423.8954077165064 203.6676696307116 L425.4399346165483 205.51370216045814 L426.9844615165902 207.36829681684236 L428.5289884166322 209.2314508332708 L430.0735153166741 211.10316146952337 L431.61804221671605 212.9834260114035 L433.16256911675794 214.87224177039278 L434.7070960167999 216.7696060833126 L436.25162291684177 218.6755163119908 L437.79614981688377 220.58996984293438 L439.34067671692566 222.51296408700713 L440.8852036169676 224.44449647911355 L442.4297305170095 226.38456447788684 L443.97425741705143 228.3331655653835 L445.5187843170933 230.29029724678134 L447.0633112171353 232.25595705008413 L448.6078381171772 234.23014252582965 L450.15236501721915 236.2128512468036 L451.69689191726104 238.2040808077574 L453.24141881730304 240.20382882513124 L454.78594571734493 242.21209293678083 L456.3304726173869 244.22887080170943 L457.87499951742876 246.2541600998033 L459.41952641747065 248.28795853157217 L460.9640533175126 250.33026381789364 L462.5085802175545 252.38107369976066 L464.0531071175965 254.44038593803495 L465.59763401763837 256.50819831320234 L467.1421609176803 258.5845086251335 L468.6866878177222 260.669314692847 L470.2312147177642 262.76261435427773 L471.7757416178061 264.86440546604695 L473.32026851784804 266.97468590323786 L474.8647954178899 269.0934535591731 L476.40932231793187 271.2207063451972 L477.95384921797375 273.35644219046003 L479.49837611801576 275.5006590417066 L481.04290301805764 277.6533548630673 L482.5874299180996 279.8145276358532 L484.1319568181415 281.98417535835307 L485.6764837181834 284.1622960456352 L487.22101061822536 286.3488877293499 L488.7655375182673 288.54394845753734 L490.3100644183092 290.74747629443607 L491.85459131835114 292.9594693202966 L493.399118218393 295.1799256311954 L494.94364511843503 297.40884333885384 L496.4881720184769 299.6462205704579 L498.03269891851886 301.89205546848257 L499.57722581856075 304.1463461905164 L501.12175271860264 306.4090909090909 " fill="none" stroke-width="1.6500000000000001" stroke="rgb(0,0,0)" stroke-opacity="1.0">
                </path>
              </g>
            </g>
          </g>
        </g>
        <defs>
          <clipPath id="cLxRg3E">
            <rect x="39.01530667574961" y="0.0" width="524.9846933242504" height="321.0">
            </rect>
          </clipPath>
        </defs>
      </g>
      <g>
        <g transform="translate(39.01530667574961 321.0 ) ">
          <g transform="translate(23.862940605647747 0.0 ) ">
            <line stroke-width="1.0" stroke="rgb(201,201,201)" stroke-opacity="1.0" x2="0.0" y2="4.0">
            </line>
            <g transform="translate(0.0 7.0 ) ">
              <text class="axis-text-x" text-anchor="middle" dy="0.7em" y="0.0">
                <tspan>0</tspan>
              </text>
            </g>
          </g>
          <g transform="translate(101.08928560774402 0.0 ) ">
            <line stroke-width="1.0" stroke="rgb(201,201,201)" stroke-opacity="1.0" x2="0.0" y2="4.0">
            </line>
            <g transform="translate(0.0 7.0 ) ">
              <text class="axis-text-x" text-anchor="middle" dy="0.7em" y="0.0">
                <tspan>0.5</tspan>
              </text>
            </g>
          </g>
          <g transform="translate(178.31563060984027 0.0 ) ">
            <line stroke-width="1.0" stroke="rgb(201,201,201)" stroke-opacity="1.0" x2="0.0" y2="4.0">
            </line>
            <g transform="translate(0.0 7.0 ) ">
              <text class="axis-text-x" text-anchor="middle" dy="0.7em" y="0.0">
                <tspan>1</tspan>
              </text>
            </g>
          </g>
          <g transform="translate(255.54197561193655 0.0 ) ">
            <line stroke-width="1.0" stroke="rgb(201,201,201)" stroke-opacity="1.0" x2="0.0" y2="4.0">
            </line>
            <g transform="translate(0.0 7.0 ) ">
              <text class="axis-text-x" text-anchor="middle" dy="0.7em" y="0.0">
                <tspan>1.5</tspan>
              </text>
            </g>
          </g>
          <g transform="translate(332.7683206140328 0.0 ) ">
            <line stroke-width="1.0" stroke="rgb(201,201,201)" stroke-opacity="1.0" x2="0.0" y2="4.0">
            </line>
            <g transform="translate(0.0 7.0 ) ">
              <text class="axis-text-x" text-anchor="middle" dy="0.7em" y="0.0">
                <tspan>2</tspan>
              </text>
            </g>
          </g>
          <g transform="translate(409.99466561612905 0.0 ) ">
            <line stroke-width="1.0" stroke="rgb(201,201,201)" stroke-opacity="1.0" x2="0.0" y2="4.0">
            </line>
            <g transform="translate(0.0 7.0 ) ">
              <text class="axis-text-x" text-anchor="middle" dy="0.7em" y="0.0">
                <tspan>2.5</tspan>
              </text>
            </g>
          </g>
          <g transform="translate(487.22101061822536 0.0 ) ">
            <line stroke-width="1.0" stroke="rgb(201,201,201)" stroke-opacity="1.0" x2="0.0" y2="4.0">
            </line>
            <g transform="translate(0.0 7.0 ) ">
              <text class="axis-text-x" text-anchor="middle" dy="0.7em" y="0.0">
                <tspan>3</tspan>
              </text>
            </g>
          </g>
        </g>
        <g transform="translate(39.01530667574961 0.0 ) ">
          <g transform="translate(0.0 305.0992437637102 ) ">
            <line stroke-width="1.0" stroke="rgb(201,201,201)" stroke-opacity="1.0" x2="-4.0" y2="0.0">
            </line>
            <g transform="translate(-7.0 0.0 ) ">
              <text class="axis-text-y" text-anchor="end" dy="0.35em" y="0.0">
                <tspan>-3</tspan>
              </text>
            </g>
          </g>
          <g transform="translate(0.0 264.69784152167136 ) ">
            <line stroke-width="1.0" stroke="rgb(201,201,201)" stroke-opacity="1.0" x2="-4.0" y2="0.0">
            </line>
            <g transform="translate(-7.0 0.0 ) ">
              <text class="axis-text-y" text-anchor="end" dy="0.35em" y="0.0">
                <tspan>-2.5</tspan>
              </text>
            </g>
          </g>
          <g transform="translate(0.0 224.29643927963252 ) ">
            <line stroke-width="1.0" stroke="rgb(201,201,201)" stroke-opacity="1.0" x2="-4.0" y2="0.0">
            </line>
            <g transform="translate(-7.0 0.0 ) ">
              <text class="axis-text-y" text-anchor="end" dy="0.35em" y="0.0">
                <tspan>-2</tspan>
              </text>
            </g>
          </g>
          <g transform="translate(0.0 183.89503703759368 ) ">
            <line stroke-width="1.0" stroke="rgb(201,201,201)" stroke-opacity="1.0" x2="-4.0" y2="0.0">
            </line>
            <g transform="translate(-7.0 0.0 ) ">
              <text class="axis-text-y" text-anchor="end" dy="0.35em" y="0.0">
                <tspan>-1.5</tspan>
              </text>
            </g>
          </g>
          <g transform="translate(0.0 143.49363479555484 ) ">
            <line stroke-width="1.0" stroke="rgb(201,201,201)" stroke-opacity="1.0" x2="-4.0" y2="0.0">
            </line>
            <g transform="translate(-7.0 0.0 ) ">
              <text class="axis-text-y" text-anchor="end" dy="0.35em" y="0.0">
                <tspan>-1</tspan>
              </text>
            </g>
          </g>
          <g transform="translate(0.0 103.092232553516 ) ">
            <line stroke-width="1.0" stroke="rgb(201,201,201)" stroke-opacity="1.0" x2="-4.0" y2="0.0">
            </line>
            <g transform="translate(-7.0 0.0 ) ">
              <text class="axis-text-y" text-anchor="end" dy="0.35em" y="0.0">
                <tspan>-0.5</tspan>
              </text>
            </g>
          </g>
          <g transform="translate(0.0 62.69083031147716 ) ">
            <line stroke-width="1.0" stroke="rgb(201,201,201)" stroke-opacity="1.0" x2="-4.0" y2="0.0">
            </line>
            <g transform="translate(-7.0 0.0 ) ">
              <text class="axis-text-y" text-anchor="end" dy="0.35em" y="0.0">
                <tspan>0</tspan>
              </text>
            </g>
          </g>
          <g transform="translate(0.0 22.289428069438316 ) ">
            <line stroke-width="1.0" stroke="rgb(201,201,201)" stroke-opacity="1.0" x2="-4.0" y2="0.0">
            </line>
            <g transform="translate(-7.0 0.0 ) ">
              <text class="axis-text-y" text-anchor="end" dy="0.35em" y="0.0">
                <tspan>0.5</tspan>
              </text>
            </g>
          </g>
        </g>
        <rect x="39.01530667574961" y="0.0" height="321.0" width="524.9846933242504" stroke="rgb(201,201,201)" stroke-opacity="1.0" stroke-width="1.0" fill-opacity="0.0">
        </rect>
      </g>
    </g>
    <g transform="translate(68.51530667574961 16.8 ) ">
      <text class="plot-title" y="0.0">
        <tspan>U</tspan><tspan>=</tspan><tspan>x</tspan><tspan font-size="0.1em"> </tspan><tspan font-size="0.7em" dy="0.4em">1</tspan><tspan font-size="0.7em" dy="-0.4em">​</tspan><tspan font-size="0.1em"> </tspan><tspan font-size="0.7em" dy="-0.4em">0.5</tspan><tspan font-size="0.7em" dy="0.4em">​</tspan><tspan>x</tspan><tspan font-size="0.1em"> </tspan><tspan font-size="0.7em" dy="0.4em">2</tspan><tspan font-size="0.7em" dy="-0.4em">​</tspan><tspan font-size="0.1em"> </tspan><tspan font-size="0.7em" dy="-0.4em">0.5</tspan><tspan font-size="0.7em" dy="0.4em">​</tspan><tspan>−</tspan><tspan>0.5</tspan><tspan>x</tspan><tspan font-size="0.1em"> </tspan><tspan font-size="0.7em" dy="0.4em">1</tspan><tspan font-size="0.7em" dy="-0.4em">​</tspan><tspan font-size="0.1em"> </tspan><tspan font-size="0.7em" dy="-0.4em">2</tspan><tspan font-size="0.7em" dy="0.4em">​</tspan><tspan>, mit </tspan><tspan>x</tspan><tspan font-size="0.1em"> </tspan><tspan font-size="0.7em" dy="0.4em">2</tspan><tspan font-size="0.7em" dy="-0.4em">​</tspan><tspan>=</tspan><tspan>1</tspan>
      </text>
    </g>
    <g transform="translate(16.0 187.0 ) rotate(-90.0 ) ">
      <text class="axis-title-y" y="0.0" text-anchor="middle">
        <tspan>U</tspan>
      </text>
    </g>
    <g transform="translate(331.00765333787484 393.0 ) ">
      <text class="axis-title-x" y="0.0" text-anchor="middle">
        <tspan>x</tspan><tspan font-size="0.1em"> </tspan><tspan font-size="0.7em" dy="0.4em">1</tspan><tspan font-size="0.7em" dy="-0.4em">​</tspan>
      </text>
    </g>
    <path fill="rgb(0,0,0)" fill-opacity="0.0" stroke="rgb(71,71,71)" stroke-opacity="1.0" stroke-width="0.0" d="M0.0 0.0 L0.0 400.0 L600.0 400.0 L600.0 0.0 Z" pointer-events="none">
    </path>
  </g>
  <g id="d89PM45">
  </g>
</svg>