<?xml version="1.0" encoding="UTF-8" standalone="no"?>
<!DOCTYPE svg PUBLIC "-//W3C//DTD SVG 1.1//EN"
 "http://www.w3.org/Graphics/SVG/1.1/DTD/svg11.dtd">
<!-- Generated by graphviz version 12.2.1 (20241206.2353)
 -->
<!-- Pages: 1 -->
<svg width="584pt" height="579pt"
 viewBox="0.00 0.00 584.36 578.50" xmlns="http://www.w3.org/2000/svg" xmlns:xlink="http://www.w3.org/1999/xlink">
<g id="graph0" class="graph" transform="scale(1 1) rotate(0) translate(4 574.5)">
<polygon fill="white" stroke="none" points="-4,4 -4,-574.5 580.36,-574.5 580.36,4 -4,4"/>
<text text-anchor="middle" x="288.18" y="-547.5" font-family="Times,serif" font-weight="bold" font-size="20.00">Local Control</text>
<!-- invis1 -->
<g id="node1" class="node">
<title>invis1</title>
</g>
<!-- A0 -->
<g id="node2" class="node">
<title>A0</title>
<polygon fill="none" stroke="black" points="252.36,-468 72.36,-468 72.36,-432 252.36,-432 252.36,-468"/>
<text text-anchor="middle" x="162.36" y="-444.95" font-family="Times New Roman,serif" font-size="14.00">Selbsterhaltung</text>
</g>
<!-- invis1&#45;&gt;A0 -->
<!-- A1 -->
<g id="node3" class="node">
<title>A1</title>
<polygon fill="none" stroke="black" points="252.36,-396 72.36,-396 72.36,-360 252.36,-360 252.36,-396"/>
<text text-anchor="middle" x="162.36" y="-372.95" font-family="Times New Roman,serif" font-size="14.00">Ziele setzen</text>
</g>
<!-- A0&#45;&gt;A1 -->
<!-- A2 -->
<g id="node4" class="node">
<title>A2</title>
<polygon fill="none" stroke="black" points="252.36,-324 72.36,-324 72.36,-288 252.36,-288 252.36,-324"/>
<text text-anchor="middle" x="162.36" y="-300.95" font-family="Times New Roman,serif" font-size="14.00">Ziele verfolgen</text>
</g>
<!-- A1&#45;&gt;A2 -->
<!-- A3 -->
<g id="node5" class="node">
<title>A3</title>
<polygon fill="none" stroke="black" points="252.36,-252 72.36,-252 72.36,-216 252.36,-216 252.36,-252"/>
<text text-anchor="middle" x="162.36" y="-228.95" font-family="Times,serif" font-weight="bold" font-size="14.00">Zugang zu Ressourcen</text>
</g>
<!-- A2&#45;&gt;A3 -->
<!-- A4 -->
<g id="node6" class="node">
<title>A4</title>
<polygon fill="none" stroke="black" points="252.36,-180 72.36,-180 72.36,-144 252.36,-144 252.36,-180"/>
<text text-anchor="middle" x="162.36" y="-156.95" font-family="Times,serif" font-weight="bold" font-size="14.00">Effizienz</text>
</g>
<!-- A3&#45;&gt;A4 -->
<!-- A4&#45;&gt;A2 -->
<g id="edge11" class="edge">
<title>A4&#45;&gt;A2</title>
<path fill="none" stroke="black" d="M82.44,-180.42C64.33,-188.25 47.26,-199.59 36.36,-216 27.51,-229.33 27.51,-238.67 36.36,-252 45.21,-265.33 58.15,-275.32 72.4,-282.79"/>
<polygon fill="black" stroke="black" points="70.54,-285.78 81.07,-286.93 73.55,-279.47 70.54,-285.78"/>
</g>
<!-- A4&#45;&gt;A3 -->
<g id="edge12" class="edge">
<title>A4&#45;&gt;A3</title>
<path fill="none" stroke="black" d="M185.94,-180.1C189.06,-187.54 190.04,-196.44 188.9,-204.81"/>
<polygon fill="black" stroke="black" points="185.58,-203.67 186.41,-214.23 192.35,-205.46 185.58,-203.67"/>
</g>
<!-- A5 -->
<g id="node7" class="node">
<title>A5</title>
<polygon fill="none" stroke="black" points="252.36,-108 72.36,-108 72.36,-72 252.36,-72 252.36,-108"/>
<text text-anchor="middle" x="162.36" y="-84.95" font-family="Times New Roman,serif" font-size="14.00">Kreativität</text>
</g>
<!-- A4&#45;&gt;A5 -->
<!-- A5&#45;&gt;A1 -->
<g id="edge7" class="edge">
<title>A5&#45;&gt;A1</title>
<path fill="none" stroke="black" d="M252.61,-98.88C313.83,-106.3 387.01,-120 406.36,-144 466.39,-218.47 368.63,-271.98 288.36,-324 269.2,-336.42 246.64,-346.99 225.94,-355.35"/>
<polygon fill="black" stroke="black" points="224.76,-352.05 216.73,-358.96 227.31,-358.57 224.76,-352.05"/>
</g>
<!-- A5&#45;&gt;A2 -->
<g id="edge8" class="edge">
<title>A5&#45;&gt;A2</title>
<path fill="none" stroke="black" d="M252.82,-106.49C293.19,-115.42 334.37,-128.06 346.36,-144 379.12,-187.53 331.88,-219.23 288.36,-252 271.17,-264.95 250.34,-275.37 230.61,-283.44"/>
<polygon fill="black" stroke="black" points="229.55,-280.1 221.52,-287.01 232.11,-286.61 229.55,-280.1"/>
</g>
<!-- A5&#45;&gt;A3 -->
<g id="edge9" class="edge">
<title>A5&#45;&gt;A3</title>
<path fill="none" stroke="black" d="M242.28,-108.42C260.39,-116.25 277.46,-127.59 288.36,-144 297.21,-157.33 297.21,-166.67 288.36,-180 279.51,-193.33 266.57,-203.32 252.32,-210.79"/>
<polygon fill="black" stroke="black" points="251.17,-207.47 243.65,-214.93 254.18,-213.78 251.17,-207.47"/>
</g>
<!-- A5&#45;&gt;A4 -->
<g id="edge10" class="edge">
<title>A5&#45;&gt;A4</title>
<path fill="none" stroke="black" d="M185.94,-108.1C189.06,-115.54 190.04,-124.44 188.9,-132.81"/>
<polygon fill="black" stroke="black" points="185.58,-131.67 186.41,-142.23 192.35,-133.46 185.58,-131.67"/>
</g>
<!-- invis -->
<g id="node8" class="node">
<title>invis</title>
</g>
<!-- A5&#45;&gt;invis -->
<!-- caption -->
<g id="node9" class="node">
<title>caption</title>
<text text-anchor="middle" x="324.36" y="-14.12" font-family="Times New Roman,serif" font-size="10.00">Darstellung: Jan S. Voßwinkel in enger Anlehnung an Groviec (2022)</text>
</g>
<!-- A5&#45;&gt;caption -->
</g>
</svg>
