<?xml version="1.0" encoding="UTF-8" standalone="no"?>
<!DOCTYPE svg PUBLIC "-//W3C//DTD SVG 1.1//EN"
 "http://www.w3.org/Graphics/SVG/1.1/DTD/svg11.dtd">
<!-- Generated by graphviz version 12.2.1 (20241206.2353)
 -->
<!-- Pages: 1 -->
<svg width="440pt" height="613pt"
 viewBox="0.00 0.00 440.00 613.00" xmlns="http://www.w3.org/2000/svg" xmlns:xlink="http://www.w3.org/1999/xlink">
<g id="graph0" class="graph" transform="scale(1 1) rotate(0) translate(4 609)">
<polygon fill="white" stroke="none" points="-4,4 -4,-609 436,-609 436,4 -4,4"/>
<text text-anchor="middle" x="216" y="-587.7" font-family="Times New Roman,serif" font-size="14.00">Effizienz und nachhaltige Entwicklung</text>
<!-- A -->
<g id="node1" class="node">
<title>A</title>
<polygon fill="none" stroke="none" points="180,-580.5 0,-580.5 0,-544.5 180,-544.5 180,-580.5"/>
<polyline fill="none" stroke="black" points="0,-544.5 180,-544.5"/>
<text text-anchor="middle" x="90" y="-557.45" font-family="Times New Roman,serif" font-size="14.00">Effizienz</text>
</g>
<!-- A1 -->
<g id="node3" class="node">
<title>A1</title>
<text text-anchor="start" x="8" y="-491.2" font-family="Times New Roman,serif" font-size="14.00">Bestmöglicher</text>
<text text-anchor="start" x="8" y="-474.7" font-family="Times New Roman,serif" font-size="14.00"> Umgang mit</text>
<text text-anchor="start" x="8" y="-458.2" font-family="Times New Roman,serif" font-size="14.00"> knappen Ressourcen</text>
</g>
<!-- A&#45;&gt;A1 -->
<!-- B -->
<g id="node2" class="node">
<title>B</title>
<polygon fill="none" stroke="none" points="432,-580.5 252,-580.5 252,-544.5 432,-544.5 432,-580.5"/>
<polyline fill="none" stroke="black" points="252,-544.5 432,-544.5"/>
<text text-anchor="middle" x="342" y="-557.45" font-family="Times New Roman,serif" font-size="14.00">nachhaltige Entwicklung</text>
</g>
<!-- B1 -->
<g id="node4" class="node">
<title>B1</title>
<text text-anchor="start" x="260" y="-482.95" font-family="Times New Roman,serif" font-size="14.00">Langfristige</text>
<text text-anchor="start" x="260" y="-466.45" font-family="Times New Roman,serif" font-size="14.00"> Nichtüberforderung</text>
</g>
<!-- B&#45;&gt;B1 -->
<!-- A1&#45;&gt;B1 -->
<g id="edge3" class="edge">
<title>A1&#45;&gt;B1</title>
<path fill="none" stroke="black" d="M190.93,-479.75C207.53,-479.75 224.13,-479.75 240.73,-479.75"/>
<polygon fill="black" stroke="black" points="191.09,-476.25 181.09,-479.75 191.09,-483.25 191.09,-476.25"/>
<polygon fill="black" stroke="black" points="240.71,-483.25 250.71,-479.75 240.71,-476.25 240.71,-483.25"/>
</g>
<!-- A2 -->
<g id="node5" class="node">
<title>A2</title>
<text text-anchor="start" x="8" y="-372.95" font-family="Times New Roman,serif" font-size="14.00">Präferenzen stehen</text>
<text text-anchor="start" x="8" y="-356.45" font-family="Times New Roman,serif" font-size="14.00"> im Zentrum</text>
</g>
<!-- A1&#45;&gt;A2 -->
<!-- B2 -->
<g id="node6" class="node">
<title>B2</title>
<text text-anchor="start" x="260" y="-397.7" font-family="Times New Roman,serif" font-size="14.00">Menschen: Selbst&#45;</text>
<text text-anchor="start" x="260" y="-381.2" font-family="Times New Roman,serif" font-size="14.00"> bestimmte langfristige</text>
<text text-anchor="start" x="260" y="-364.7" font-family="Times New Roman,serif" font-size="14.00"> Lebensgestaltung</text>
<text text-anchor="start" x="260" y="-348.2" font-family="Times New Roman,serif" font-size="14.00"> Natur: Erhalt von </text>
<text text-anchor="start" x="260" y="-331.7" font-family="Times New Roman,serif" font-size="14.00"> Ökosystemen</text>
</g>
<!-- B1&#45;&gt;B2 -->
<!-- A2&#45;&gt;B2 -->
<g id="edge6" class="edge">
<title>A2&#45;&gt;B2</title>
<path fill="none" stroke="black" d="M190.93,-369.75C207.53,-369.75 224.13,-369.75 240.73,-369.75"/>
<polygon fill="black" stroke="black" points="191.09,-366.25 181.09,-369.75 191.09,-373.25 191.09,-366.25"/>
<polygon fill="black" stroke="black" points="240.71,-373.25 250.71,-369.75 240.71,-366.25 240.71,-373.25"/>
</g>
<!-- A3 -->
<g id="node7" class="node">
<title>A3</title>
<text text-anchor="start" x="8" y="-271.2" font-family="Times New Roman,serif" font-size="14.00">Nachhaltiger Umgang</text>
<text text-anchor="start" x="8" y="-254.7" font-family="Times New Roman,serif" font-size="14.00"> mit Ressourcen endogen</text>
</g>
<!-- A2&#45;&gt;A3 -->
<!-- B3 -->
<g id="node8" class="node">
<title>B3</title>
<text text-anchor="start" x="260" y="-271.2" font-family="Times New Roman,serif" font-size="14.00">Nachhaltiger Umgang</text>
<text text-anchor="start" x="260" y="-254.7" font-family="Times New Roman,serif" font-size="14.00"> mit Ressourcen postuliert</text>
</g>
<!-- B2&#45;&gt;B3 -->
<!-- A3&#45;&gt;B3 -->
<g id="edge9" class="edge">
<title>A3&#45;&gt;B3</title>
<path fill="none" stroke="black" d="M190.93,-268C207.53,-268 224.13,-268 240.73,-268"/>
<polygon fill="black" stroke="black" points="191.09,-264.5 181.09,-268 191.09,-271.5 191.09,-264.5"/>
<polygon fill="black" stroke="black" points="240.71,-271.5 250.71,-268 240.71,-264.5 240.71,-271.5"/>
</g>
<!-- A4 -->
<g id="node9" class="node">
<title>A4</title>
<text text-anchor="start" x="8" y="-194.2" font-family="Times New Roman,serif" font-size="14.00">Neoklassik:</text>
<text text-anchor="start" x="8" y="-177.7" font-family="Times New Roman,serif" font-size="14.00"> Anthropozentrisch</text>
</g>
<!-- A3&#45;&gt;A4 -->
<!-- B4 -->
<g id="node10" class="node">
<title>B4</title>
<text text-anchor="start" x="260" y="-194.2" font-family="Times New Roman,serif" font-size="14.00">Auch</text>
<text text-anchor="start" x="260" y="-177.7" font-family="Times New Roman,serif" font-size="14.00"> ökosystemorientiert</text>
</g>
<!-- B3&#45;&gt;B4 -->
<!-- A4&#45;&gt;B4 -->
<g id="edge12" class="edge">
<title>A4&#45;&gt;B4</title>
<path fill="none" stroke="black" d="M190.93,-191C207.53,-191 224.13,-191 240.73,-191"/>
<polygon fill="black" stroke="black" points="191.09,-187.5 181.09,-191 191.09,-194.5 191.09,-187.5"/>
<polygon fill="black" stroke="black" points="240.71,-194.5 250.71,-191 240.71,-187.5 240.71,-194.5"/>
</g>
<!-- A5 -->
<g id="node11" class="node">
<title>A5</title>
<text text-anchor="start" x="8" y="-117.2" font-family="Times New Roman,serif" font-size="14.00">Beinhaltet keine</text>
<text text-anchor="start" x="8" y="-100.7" font-family="Times New Roman,serif" font-size="14.00"> Aussagen zur Verteilung</text>
</g>
<!-- A4&#45;&gt;A5 -->
<!-- B5 -->
<g id="node12" class="node">
<title>B5</title>
<text text-anchor="start" x="260" y="-117.2" font-family="Times New Roman,serif" font-size="14.00">Beinhaltet</text>
<text text-anchor="start" x="260" y="-100.7" font-family="Times New Roman,serif" font-size="14.00"> Verteilungsaussagen</text>
</g>
<!-- B4&#45;&gt;B5 -->
<!-- A5&#45;&gt;B5 -->
<g id="edge15" class="edge">
<title>A5&#45;&gt;B5</title>
<path fill="none" stroke="black" d="M190.93,-114C207.53,-114 224.13,-114 240.73,-114"/>
<polygon fill="black" stroke="black" points="191.09,-110.5 181.09,-114 191.09,-117.5 191.09,-110.5"/>
<polygon fill="black" stroke="black" points="240.71,-117.5 250.71,-114 240.71,-110.5 240.71,-117.5"/>
</g>
<!-- A6 -->
<g id="node13" class="node">
<title>A6</title>
<text text-anchor="start" x="8" y="-40.2" font-family="Times New Roman,serif" font-size="14.00">Zeitliche Perspektive:</text>
<text text-anchor="start" x="8" y="-23.7" font-family="Times New Roman,serif" font-size="14.00"> statisch vs. dynamisch</text>
<text text-anchor="start" x="8" y="-7.2" font-family="Times New Roman,serif" font-size="14.00"> kurz&#45; vs. langfristig</text>
</g>
<!-- A5&#45;&gt;A6 -->
<!-- B6 -->
<g id="node14" class="node">
<title>B6</title>
<text text-anchor="start" x="260" y="-31.95" font-family="Times New Roman,serif" font-size="14.00">Zeitliche Perspektive:</text>
<text text-anchor="start" x="260" y="-15.45" font-family="Times New Roman,serif" font-size="14.00"> Langfristorientierung</text>
</g>
<!-- B5&#45;&gt;B6 -->
<!-- A6&#45;&gt;B6 -->
<g id="edge18" class="edge">
<title>A6&#45;&gt;B6</title>
<path fill="none" stroke="black" d="M190.93,-28.75C207.53,-28.75 224.13,-28.75 240.73,-28.75"/>
<polygon fill="black" stroke="black" points="191.09,-25.25 181.09,-28.75 191.09,-32.25 191.09,-25.25"/>
<polygon fill="black" stroke="black" points="240.71,-32.25 250.71,-28.75 240.71,-25.25 240.71,-32.25"/>
</g>
</g>
</svg>
