<?xml version="1.0" encoding="UTF-8" standalone="no"?>
<!DOCTYPE svg PUBLIC "-//W3C//DTD SVG 1.1//EN"
 "http://www.w3.org/Graphics/SVG/1.1/DTD/svg11.dtd">
<!-- Generated by graphviz version 12.2.1 (20241206.2353)
 -->
<!-- Title: clusters_example Pages: 1 -->
<svg width="436pt" height="421pt"
 viewBox="0.00 0.00 436.00 421.00" xmlns="http://www.w3.org/2000/svg" xmlns:xlink="http://www.w3.org/1999/xlink">
<g id="graph0" class="graph" transform="scale(1 1) rotate(0) translate(4 417)">
<title>clusters_example</title>
<polygon fill="white" stroke="none" points="-4,4 -4,-417 432,-417 432,4 -4,4"/>
<g id="clust1" class="cluster">
<title>cluster_3</title>
<polygon fill="#00ffff" fill-opacity="0.188235" stroke="#00ffff" stroke-opacity="0.188235" points="8,-8 8,-135 420,-135 420,-8 8,-8"/>
<text text-anchor="middle" x="214" y="-117.7" font-family="Times New Roman,serif" font-size="14.00">Axiomatischer Rationalitätsbegriff</text>
</g>
<g id="clust2" class="cluster">
<title>cluster_2</title>
<polygon fill="#00ffff" fill-opacity="0.396078" stroke="#00ffff" stroke-opacity="0.396078" points="8,-143 8,-270 420,-270 420,-143 8,-143"/>
<text text-anchor="middle" x="214" y="-252.7" font-family="Times New Roman,serif" font-size="14.00">Offenbarte Präferenzen</text>
</g>
<g id="clust3" class="cluster">
<title>cluster_1</title>
<polygon fill="#00ffff" stroke="#00ffff" points="8,-278 8,-405 420,-405 420,-278 8,-278"/>
<text text-anchor="middle" x="214" y="-387.7" font-family="Times New Roman,serif" font-size="14.00">Hedonistischer Nutzenbegriff</text>
</g>
<!-- c1 -->
<g id="node1" class="node">
<title>c1</title>
<ellipse fill="white" stroke="white" cx="106" cy="-59" rx="90" ry="43.2"/>
<text text-anchor="middle" x="106" y="-62.2" font-family="Times New Roman,serif" font-size="14.00">Eigenschaften des</text>
<text text-anchor="middle" x="106" y="-45.7" font-family="Times New Roman,serif" font-size="14.00"> Entscheidungsverhaltens</text>
</g>
<!-- c2 -->
<g id="node2" class="node">
<title>c2</title>
<ellipse fill="white" stroke="white" cx="322" cy="-59" rx="90" ry="43.2"/>
<text text-anchor="middle" x="322" y="-53.95" font-family="Times New Roman,serif" font-size="14.00">Rationalität</text>
</g>
<!-- c1&#45;&gt;c2 -->
<g id="edge1" class="edge">
<title>c1&#45;&gt;c2</title>
<path fill="none" stroke="black" d="M196.21,-59C204.16,-59 212.24,-59 220.28,-59"/>
<polygon fill="black" stroke="black" points="220.08,-62.5 230.08,-59 220.08,-55.5 220.08,-62.5"/>
</g>
<!-- b1 -->
<g id="node3" class="node">
<title>b1</title>
<ellipse fill="white" stroke="white" cx="106" cy="-194" rx="90" ry="43.2"/>
<text text-anchor="middle" x="106" y="-188.95" font-family="Times New Roman,serif" font-size="14.00">(Rationale) Entscheidung</text>
</g>
<!-- b2 -->
<g id="node4" class="node">
<title>b2</title>
<ellipse fill="white" stroke="white" cx="322" cy="-194" rx="90" ry="43.2"/>
<text text-anchor="middle" x="322" y="-188.95" font-family="Times New Roman,serif" font-size="14.00">Nutzenfunktion</text>
</g>
<!-- b1&#45;&gt;b2 -->
<g id="edge2" class="edge">
<title>b1&#45;&gt;b2</title>
<path fill="none" stroke="black" d="M196.21,-194C204.16,-194 212.24,-194 220.28,-194"/>
<polygon fill="black" stroke="black" points="220.08,-197.5 230.08,-194 220.08,-190.5 220.08,-197.5"/>
</g>
<!-- a1 -->
<g id="node5" class="node">
<title>a1</title>
<ellipse fill="white" stroke="white" cx="106" cy="-329" rx="90" ry="43.2"/>
<text text-anchor="middle" x="106" y="-323.95" font-family="Times New Roman,serif" font-size="14.00">Nutzenfunktion</text>
</g>
<!-- a2 -->
<g id="node6" class="node">
<title>a2</title>
<ellipse fill="white" stroke="white" cx="322" cy="-329" rx="90" ry="43.2"/>
<text text-anchor="middle" x="322" y="-323.95" font-family="Times New Roman,serif" font-size="14.00">Rationale Entscheidung</text>
</g>
<!-- a1&#45;&gt;a2 -->
<g id="edge3" class="edge">
<title>a1&#45;&gt;a2</title>
<path fill="none" stroke="black" d="M196.21,-329C204.16,-329 212.24,-329 220.28,-329"/>
<polygon fill="black" stroke="black" points="220.08,-332.5 230.08,-329 220.08,-325.5 220.08,-332.5"/>
</g>
</g>
</svg>
