<?xml version="1.0" encoding="UTF-8" standalone="no"?>
<!DOCTYPE svg PUBLIC "-//W3C//DTD SVG 1.1//EN"
 "http://www.w3.org/Graphics/SVG/1.1/DTD/svg11.dtd">
<!-- Generated by graphviz version 12.2.1 (20241206.2353)
 -->
<!-- Pages: 1 -->
<svg width="2055pt" height="475pt"
 viewBox="0.00 0.00 2055.34 475.00" xmlns="http://www.w3.org/2000/svg" xmlns:xlink="http://www.w3.org/1999/xlink">
<g id="graph0" class="graph" transform="scale(1 1) rotate(0) translate(4 471)">
<polygon fill="white" stroke="none" points="-4,4 -4,-471 2051.34,-471 2051.34,4 -4,4"/>
<g id="clust1" class="cluster">
<title>cluster_static</title>
<polygon fill="none" stroke="#2980b9" stroke-dasharray="5,2" points="22.32,-8 22.32,-225 1403.32,-225 1403.32,-8 22.32,-8"/>
<text text-anchor="middle" x="712.82" y="-206.75" font-family="Arial" font-size="15.00">Statische Funktionen</text>
</g>
<g id="clust2" class="cluster">
<title>cluster_dynamic</title>
<polygon fill="none" stroke="#8e44ad" stroke-dasharray="5,2" points="1411.32,-8 1411.32,-225 2026.32,-225 2026.32,-8 1411.32,-8"/>
<text text-anchor="middle" x="1718.82" y="-206.75" font-family="Arial" font-size="15.00">Dynamische Funktionen</text>
</g>
<!-- M -->
<g id="node1" class="node">
<title>M</title>
<polygon fill="#34495e" stroke="#2c3e50" stroke-width="2" points="1374.44,-365 1254.19,-365 1254.19,-325.5 1374.44,-325.5 1374.44,-365"/>
<text text-anchor="middle" x="1314.32" y="-347.7" font-family="Arial" font-size="14.00" fill="white">Marktwirtschaft &amp;</text>
<text text-anchor="middle" x="1314.32" y="-331.95" font-family="Arial" font-size="14.00" fill="white">Wettbewerb</text>
</g>
<!-- S_KAT -->
<g id="node3" class="node">
<title>S_KAT</title>
<polygon fill="#2980b9" stroke="#2c3e50" stroke-width="2" points="880.69,-288.5 629.94,-288.5 629.94,-252 880.69,-252 880.69,-288.5"/>
<text text-anchor="middle" x="755.32" y="-273.1" font-family="Arial" font-size="12.00" fill="white">Statische Wettbewerbsfunktionen</text>
<text text-anchor="middle" x="755.32" y="-258.85" font-family="Arial" font-size="12.00" fill="white">(Kurzfristig / Effizienz des aktuellen Marktes)</text>
</g>
<!-- M&#45;&gt;S_KAT -->
<g id="edge1" class="edge">
<title>M&#45;&gt;S_KAT</title>
<path fill="none" stroke="#7f8c8d" d="M1253.7,-336.33C1167.65,-325.1 1007.74,-304.21 892.21,-289.13"/>
<polygon fill="#7f8c8d" stroke="#7f8c8d" points="882.39,-287.84 892.88,-284.68 886.14,-288.33 892.3,-289.14 892.3,-289.14 892.3,-289.14 886.14,-288.33 891.72,-293.6 882.39,-287.84"/>
</g>
<!-- D_KAT -->
<g id="node4" class="node">
<title>D_KAT</title>
<polygon fill="#8e44ad" stroke="#2c3e50" stroke-width="2" points="1804.07,-288.5 1534.57,-288.5 1534.57,-252 1804.07,-252 1804.07,-288.5"/>
<text text-anchor="middle" x="1669.32" y="-273.1" font-family="Arial" font-size="12.00" fill="white">Dynamische Wettbewerbsfunktionen</text>
<text text-anchor="middle" x="1669.32" y="-258.85" font-family="Arial" font-size="12.00" fill="white">(Langfristig / Motor des technischen Fortschritts)</text>
</g>
<!-- M&#45;&gt;D_KAT -->
<g id="edge2" class="edge">
<title>M&#45;&gt;D_KAT</title>
<path fill="none" stroke="#7f8c8d" d="M1374.94,-331.78C1429.04,-320.66 1509.22,-304.17 1572.25,-291.21"/>
<polygon fill="#7f8c8d" stroke="#7f8c8d" points="1581.81,-289.24 1572.92,-295.67 1578.11,-290.01 1572.02,-291.26 1572.02,-291.26 1572.02,-291.26 1578.11,-290.01 1571.11,-286.85 1581.81,-289.24"/>
</g>
<!-- E -->
<g id="node2" class="node">
<title>E</title>
<polygon fill="#e74c3c" stroke="#2c3e50" stroke-width="2" points="1422.07,-467 1206.57,-467 1206.57,-431 1422.07,-431 1422.07,-467"/>
<text text-anchor="middle" x="1314.32" y="-452.05" font-family="Arial" font-size="11.00" fill="white">Wettbewerbspolitik</text>
<text text-anchor="middle" x="1314.32" y="-438.55" font-family="Arial" font-size="11.00" fill="white">(Schutz vor Monopolen &amp; Marktversagen)</text>
</g>
<!-- E&#45;&gt;M -->
<g id="edge14" class="edge">
<title>E&#45;&gt;M</title>
<path fill="none" stroke="#e74c3c" stroke-dasharray="5,2" d="M1314.32,-430.74C1314.32,-415.93 1314.32,-394.23 1314.32,-376.54"/>
<polygon fill="#e74c3c" stroke="#e74c3c" points="1314.32,-366.55 1318.82,-376.55 1314.32,-370.33 1314.32,-376.55 1314.32,-376.55 1314.32,-376.55 1314.32,-370.33 1309.82,-376.55 1314.32,-366.55"/>
<text text-anchor="middle" x="1368.69" y="-400.65" font-family="Arial" font-size="13.00">Sicherung der</text>
<text text-anchor="middle" x="1368.69" y="-385.65" font-family="Arial" font-size="13.00">Funktionsfähigkeit</text>
</g>
<!-- S_Steuer -->
<g id="node5" class="node">
<title>S_Steuer</title>
<polygon fill="#ecf0f1" stroke="#2c3e50" points="899.07,-182 611.57,-182 611.57,-138 899.07,-138 899.07,-182"/>
<text text-anchor="middle" x="755.32" y="-163.75" font-family="Arial" font-size="15.00">Steuerungsfunktion</text>
<text text-anchor="middle" x="755.32" y="-145.75" font-family="Arial" font-size="15.00">&#45; Ausrichtung an Konsumentenwünschen</text>
</g>
<!-- S_KAT&#45;&gt;S_Steuer -->
<g id="edge3" class="edge">
<title>S_KAT&#45;&gt;S_Steuer</title>
<path fill="none" stroke="#7f8c8d" d="M755.32,-251.86C755.32,-236.14 755.32,-212.61 755.32,-193.43"/>
<polygon fill="#7f8c8d" stroke="#7f8c8d" points="755.32,-183.67 759.82,-193.67 755.32,-187.45 755.32,-193.67 755.32,-193.67 755.32,-193.67 755.32,-187.45 750.82,-193.67 755.32,-183.67"/>
</g>
<!-- S_Allok -->
<g id="node6" class="node">
<title>S_Allok</title>
<polygon fill="#ecf0f1" stroke="#2c3e50" points="586.44,-78 328.19,-78 328.19,-16 586.44,-16 586.44,-78"/>
<text text-anchor="middle" x="457.32" y="-59.75" font-family="Arial" font-size="15.00">Allokationsfunktion</text>
<text text-anchor="middle" x="457.32" y="-41.75" font-family="Arial" font-size="15.00">&#45; Kostengünstigste Vorprodukte</text>
<text text-anchor="middle" x="457.32" y="-23.75" font-family="Arial" font-size="15.00">&#45; Konzentration auf effiziente Firmen</text>
</g>
<!-- S_KAT&#45;&gt;S_Allok -->
<g id="edge4" class="edge">
<title>S_KAT&#45;&gt;S_Allok</title>
<path fill="none" stroke="#7f8c8d" d="M629.78,-266.11C425.53,-260.38 41.82,-246.77 21.32,-225 -7.93,-193.94 -5.96,-161.81 21.32,-129 58.53,-84.24 203.91,-64.09 316.68,-55.1"/>
<polygon fill="#7f8c8d" stroke="#7f8c8d" points="326.62,-54.34 316.99,-59.59 322.85,-54.63 316.65,-55.11 316.65,-55.11 316.65,-55.11 322.85,-54.63 316.3,-50.62 326.62,-54.34"/>
</g>
<!-- S_Anreiz -->
<g id="node7" class="node">
<title>S_Anreiz</title>
<polygon fill="#ecf0f1" stroke="#2c3e50" points="1171.94,-182 916.69,-182 916.69,-138 1171.94,-138 1171.94,-182"/>
<text text-anchor="middle" x="1044.32" y="-163.75" font-family="Arial" font-size="15.00">Anreizfunktion</text>
<text text-anchor="middle" x="1044.32" y="-145.75" font-family="Arial" font-size="15.00">&#45; Gewinn als Motivation für Leistung</text>
</g>
<!-- S_KAT&#45;&gt;S_Anreiz -->
<g id="edge5" class="edge">
<title>S_KAT&#45;&gt;S_Anreiz</title>
<path fill="none" stroke="#7f8c8d" d="M825.01,-251.6C851.41,-244.27 881.54,-235.1 908.32,-225 936.97,-214.19 967.92,-199.85 993.06,-187.48"/>
<polygon fill="#7f8c8d" stroke="#7f8c8d" points="1002,-183.04 995.05,-191.52 998.61,-184.72 993.04,-187.49 993.04,-187.49 993.04,-187.49 998.61,-184.72 991.04,-183.46 1002,-183.04"/>
</g>
<!-- S_Sank -->
<g id="node8" class="node">
<title>S_Sank</title>
<polygon fill="#ecf0f1" stroke="#2c3e50" points="1394.82,-182 1189.82,-182 1189.82,-138 1394.82,-138 1394.82,-182"/>
<text text-anchor="middle" x="1292.32" y="-163.75" font-family="Arial" font-size="15.00">Sanktionsfunktion</text>
<text text-anchor="middle" x="1292.32" y="-145.75" font-family="Arial" font-size="15.00">&#45; Marktaustritt bei Ineffizienz</text>
</g>
<!-- S_KAT&#45;&gt;S_Sank -->
<g id="edge6" class="edge">
<title>S_KAT&#45;&gt;S_Sank</title>
<path fill="none" stroke="#7f8c8d" d="M880.95,-262C986.07,-254.87 1127.29,-242.5 1181.32,-225 1207.08,-216.66 1233.44,-201.78 1254,-188.47"/>
<polygon fill="#7f8c8d" stroke="#7f8c8d" points="1262.29,-182.96 1256.45,-192.24 1259.14,-185.05 1253.96,-188.49 1253.96,-188.49 1253.96,-188.49 1259.14,-185.05 1251.47,-184.74 1262.29,-182.96"/>
</g>
<!-- S_Vert -->
<g id="node9" class="node">
<title>S_Vert</title>
<polygon fill="#ecf0f1" stroke="#2c3e50" points="320.19,-182 30.44,-182 30.44,-138 320.19,-138 320.19,-182"/>
<text text-anchor="middle" x="175.32" y="-163.75" font-family="Arial" font-size="15.00">Verteilungsfunktion</text>
<text text-anchor="middle" x="175.32" y="-145.75" font-family="Arial" font-size="15.00">&#45; Leistungs&#45; &amp; marktgerechte Entlohnung</text>
</g>
<!-- S_KAT&#45;&gt;S_Vert -->
<g id="edge7" class="edge">
<title>S_KAT&#45;&gt;S_Vert</title>
<path fill="none" stroke="#7f8c8d" d="M629.69,-265.76C543.95,-261.06 428.41,-250.16 329.32,-225 294.18,-216.08 256.56,-200.57 227.31,-187.05"/>
<polygon fill="#7f8c8d" stroke="#7f8c8d" points="218.43,-182.89 229.39,-183.06 221.85,-184.49 227.48,-187.13 227.48,-187.13 227.48,-187.13 221.85,-184.49 225.57,-191.21 218.43,-182.89"/>
</g>
<!-- S_Frei -->
<g id="node10" class="node">
<title>S_Frei</title>
<polygon fill="#ecf0f1" stroke="#2c3e50" points="593.94,-191 338.69,-191 338.69,-129 593.94,-129 593.94,-191"/>
<text text-anchor="middle" x="466.32" y="-172.75" font-family="Arial" font-size="15.00">Freiheitsfunktion</text>
<text text-anchor="middle" x="466.32" y="-154.75" font-family="Arial" font-size="15.00">&#45; Entfaltungsspielräume</text>
<text text-anchor="middle" x="466.32" y="-136.75" font-family="Arial" font-size="15.00">&#45; Begrenzung wirtschaftlicher Macht</text>
</g>
<!-- S_KAT&#45;&gt;S_Frei -->
<g id="edge8" class="edge">
<title>S_KAT&#45;&gt;S_Frei</title>
<path fill="none" stroke="#7f8c8d" d="M685.63,-251.6C659.23,-244.27 629.1,-235.1 602.32,-225 580.19,-216.65 556.68,-206.19 535.54,-196.16"/>
<polygon fill="#7f8c8d" stroke="#7f8c8d" points="526.79,-191.97 537.75,-192.23 530.2,-193.6 535.81,-196.29 535.81,-196.29 535.81,-196.29 530.2,-193.6 533.86,-200.35 526.79,-191.97"/>
</g>
<!-- D_Inno -->
<g id="node11" class="node">
<title>D_Inno</title>
<polygon fill="#f5eef8" stroke="#2c3e50" points="1711.69,-191 1418.94,-191 1418.94,-129 1711.69,-129 1711.69,-191"/>
<text text-anchor="middle" x="1565.32" y="-172.75" font-family="Arial" font-size="15.00">Innovationsfunktion</text>
<text text-anchor="middle" x="1565.32" y="-154.75" font-family="Arial" font-size="15.00">&#45; Wettbewerb als Entdeckungsverfahren</text>
<text text-anchor="middle" x="1565.32" y="-136.75" font-family="Arial" font-size="15.00">&#45; Suche nach neuen Produkten/Verfahren</text>
</g>
<!-- D_KAT&#45;&gt;D_Inno -->
<g id="edge10" class="edge">
<title>D_KAT&#45;&gt;D_Inno</title>
<path fill="none" stroke="#7f8c8d" d="M1652.61,-251.86C1639.07,-237.76 1619.48,-217.37 1602.28,-199.47"/>
<polygon fill="#7f8c8d" stroke="#7f8c8d" points="1595.43,-192.34 1605.6,-196.43 1598.05,-195.07 1602.36,-199.55 1602.36,-199.55 1602.36,-199.55 1598.05,-195.07 1599.11,-202.67 1595.43,-192.34"/>
</g>
<!-- D_Imit -->
<g id="node12" class="node">
<title>D_Imit</title>
<polygon fill="#f5eef8" stroke="#2c3e50" points="1938.07,-78 1668.57,-78 1668.57,-16 1938.07,-16 1938.07,-78"/>
<text text-anchor="middle" x="1803.32" y="-59.75" font-family="Arial" font-size="15.00">Imitationsfunktion</text>
<text text-anchor="middle" x="1803.32" y="-41.75" font-family="Arial" font-size="15.00">&#45; Nachahmung von Pionierleistungen</text>
<text text-anchor="middle" x="1803.32" y="-23.75" font-family="Arial" font-size="15.00">&#45; Breite Durchsetzung des Fortschritts</text>
</g>
<!-- D_KAT&#45;&gt;D_Imit -->
<g id="edge11" class="edge">
<title>D_KAT&#45;&gt;D_Imit</title>
<path fill="none" stroke="#7f8c8d" d="M1804.39,-261.1C1899.43,-253.95 2012.28,-242.01 2027.32,-225 2055.58,-193.03 2051.83,-163.92 2027.32,-129 2008.43,-102.09 1979.67,-84.08 1948.99,-72.04"/>
<polygon fill="#7f8c8d" stroke="#7f8c8d" points="1939.66,-68.6 1950.6,-67.84 1943.21,-69.91 1949.04,-72.06 1949.04,-72.06 1949.04,-72.06 1943.21,-69.91 1947.49,-76.28 1939.66,-68.6"/>
</g>
<!-- D_Anpass -->
<g id="node13" class="node">
<title>D_Anpass</title>
<polygon fill="#f5eef8" stroke="#2c3e50" points="2018.44,-191 1730.19,-191 1730.19,-129 2018.44,-129 2018.44,-191"/>
<text text-anchor="middle" x="1874.32" y="-172.75" font-family="Arial" font-size="15.00">Anpassungsfunktion</text>
<text text-anchor="middle" x="1874.32" y="-154.75" font-family="Arial" font-size="15.00">&#45; Reaktion auf neue Nachfragestrukturen</text>
<text text-anchor="middle" x="1874.32" y="-136.75" font-family="Arial" font-size="15.00">&#45; Internationale Arbeitsteilung</text>
</g>
<!-- D_KAT&#45;&gt;D_Anpass -->
<g id="edge12" class="edge">
<title>D_KAT&#45;&gt;D_Anpass</title>
<path fill="none" stroke="#7f8c8d" d="M1702.71,-251.62C1730.92,-236.72 1772.2,-214.92 1807.2,-196.44"/>
<polygon fill="#7f8c8d" stroke="#7f8c8d" points="1815.81,-191.89 1809.07,-200.54 1812.47,-193.66 1806.97,-196.56 1806.97,-196.56 1806.97,-196.56 1812.47,-193.66 1804.87,-192.58 1815.81,-191.89"/>
</g>
<!-- S_Steuer&#45;&gt;S_Allok -->
<g id="edge9" class="edge">
<title>S_Steuer&#45;&gt;S_Allok</title>
<path fill="none" stroke="#7f8c8d" stroke-dasharray="1,5" d="M697.86,-137.6C655.87,-121.96 598.04,-100.42 549.61,-82.38"/>
<polygon fill="#7f8c8d" stroke="#7f8c8d" points="540.25,-78.89 551.19,-78.16 543.79,-80.21 549.62,-82.38 549.62,-82.38 549.62,-82.38 543.79,-80.21 548.05,-86.6 540.25,-78.89"/>
<text text-anchor="middle" x="669.16" y="-98.65" font-family="Arial" font-size="13.00">eng verbunden</text>
</g>
<!-- D_Inno&#45;&gt;D_Imit -->
<g id="edge13" class="edge">
<title>D_Inno&#45;&gt;D_Imit</title>
<path fill="none" stroke="#7f8c8d" d="M1630.67,-128.52C1660.84,-114.45 1696.84,-97.66 1728.13,-83.07"/>
<polygon fill="#7f8c8d" stroke="#7f8c8d" points="1737.01,-78.93 1729.85,-87.23 1733.58,-80.52 1727.95,-83.15 1727.95,-83.15 1727.95,-83.15 1733.58,-80.52 1726.05,-79.07 1737.01,-78.93"/>
<text text-anchor="middle" x="1769.07" y="-98.65" font-family="Arial" font-size="13.00">Pionier &#45;&gt; Nachahmung</text>
</g>
</g>
</svg>
